<svg id="svg" xmlns="http://www.w3.org/2000/svg" xmlns:xlink="http://www.w3.org/1999/xlink" width="400" height="400" viewBox="0, 0, 400,400"><g id="svgg"><path id="path0" d="M356.641 1.199 C 353.633 1.776,344.417 3.463,336.162 4.947 C 316.277 8.521,311.073 11.297,306.196 20.927 C 302.662 27.907,302.993 31.509,311.633 80.078 C 315.913 104.141,319.177 124.069,318.887 124.363 C 317.604 125.663,262.578 143.846,257.549 144.631 C 243.386 146.845,226.136 143.013,214.709 135.115 C 201.818 126.204,152.118 89.395,151.191 88.072 C 147.257 82.456,152.132 75.084,159.375 75.695 C 160.020 75.749,173.843 82.383,190.093 90.436 L 219.639 105.078 230.568 105.349 C 245.189 105.712,248.438 104.277,248.438 97.455 C 248.438 90.833,245.132 89.063,232.769 89.063 L 224.365 89.063 194.601 74.263 C 172.703 63.376,163.960 59.401,161.520 59.224 C 153.612 58.652,145.188 61.209,141.282 65.367 C 139.659 67.094,139.045 67.188,129.325 67.188 C 107.153 67.188,106.732 67.457,66.406 107.478 C 48.574 125.175,33.216 140.048,32.278 140.530 C 23.473 145.050,12.804 133.873,17.442 124.987 C 18.805 122.375,66.521 65.729,72.301 59.860 C 82.148 49.863,96.201 41.279,110.221 36.698 C 124.164 32.141,125.834 32.036,184.473 32.034 C 213.960 32.032,239.180 31.813,240.516 31.545 C 246.952 30.258,249.368 21.768,244.471 17.648 L 242.068 15.625 185.624 15.625 C 117.324 15.625,111.944 16.254,90.713 26.726 C 69.931 36.977,65.732 40.930,28.286 85.502 C 0.692 118.346,0.391 118.828,0.391 130.078 C 0.391 146.949,10.864 157.422,27.734 157.422 C 39.947 157.422,38.384 158.592,76.172 121.142 C 112.069 85.566,112.633 85.114,123.047 83.625 C 133.283 82.162,133.348 82.182,133.741 86.926 C 134.584 97.087,136.193 98.667,173.047 125.512 C 215.487 156.427,216.772 157.161,234.276 160.482 C 251.141 163.681,260.788 162.056,295.608 150.155 C 318.725 142.254,322.656 141.114,322.656 142.314 C 322.656 154.021,335.079 165.759,347.499 165.787 C 352.461 165.798,391.810 159.293,395.679 157.822 C 398.353 156.805,400.000 153.981,400.000 150.412 C 400.000 146.483,375.211 5.760,374.179 3.832 C 372.070 -0.110,367.237 -0.835,356.641 1.199 M270.116 17.597 C 267.976 19.737,267.193 22.334,267.774 25.372 C 269.517 34.488,283.594 32.703,283.594 23.365 C 283.594 16.525,274.906 12.807,270.116 17.597 M371.539 80.685 C 377.633 115.156,382.536 143.456,382.435 143.575 C 381.998 144.087,351.681 149.214,349.074 149.216 C 340.290 149.224,341.057 151.633,330.004 89.253 C 318.620 25.001,318.809 27.532,325.130 24.149 C 326.823 23.243,359.537 17.228,360.112 17.717 C 360.303 17.879,365.445 46.215,371.539 80.685 M341.628 36.485 C 339.125 36.970,335.938 41.101,335.938 43.861 C 335.938 53.967,350.147 55.603,352.003 45.710 C 352.832 41.295,347.899 35.360,343.970 36.044 C 343.634 36.102,342.580 36.301,341.628 36.485 M127.344 133.331 C 111.692 134.955,96.716 146.972,92.188 161.541 C 79.055 203.797,130.208 235.215,161.382 204.041 C 188.769 176.654,165.985 129.323,127.344 133.331 M139.075 150.836 C 149.477 153.442,157.705 165.288,156.881 176.473 C 155.348 197.277,130.236 207.495,115.047 193.494 C 95.172 175.174,112.614 144.207,139.075 150.836 M269.493 200.809 C 234.026 206.195,221.572 250.495,248.898 274.068 C 268.323 290.824,300.156 284.760,312.292 261.991 C 328.398 231.773,303.160 195.696,269.493 200.809 M286.482 219.626 C 309.824 230.746,302.797 265.715,276.953 267.045 C 253.999 268.226,241.860 241.093,257.931 224.526 C 265.611 216.608,276.298 214.774,286.482 219.626 M48.828 234.161 C 43.063 234.873,5.954 241.557,4.321 242.178 C -1.668 244.455,-1.942 241.732,12.533 323.747 C 25.459 396.976,25.414 396.763,28.305 398.788 C 32.868 401.984,78.969 393.739,85.850 388.496 C 98.399 378.934,98.478 376.763,88.367 319.922 C 84.087 295.859,80.823 275.931,81.113 275.637 C 82.396 274.337,137.422 256.154,142.451 255.369 C 156.614 253.155,173.864 256.987,185.291 264.885 C 198.182 273.796,247.882 310.605,248.809 311.928 C 252.743 317.544,247.868 324.916,240.625 324.305 C 239.980 324.251,226.157 317.617,209.907 309.564 L 180.361 294.922 169.432 294.651 C 154.811 294.288,151.563 295.723,151.563 302.545 C 151.563 309.167,154.868 310.938,167.231 310.938 L 175.635 310.938 205.399 325.737 C 227.297 336.624,236.040 340.599,238.480 340.776 C 246.388 341.348,254.812 338.791,258.718 334.633 C 260.341 332.906,260.955 332.813,270.675 332.813 C 292.847 332.813,293.268 332.543,333.594 292.522 C 351.426 274.825,366.784 259.952,367.722 259.470 C 376.527 254.950,387.196 266.127,382.558 275.013 C 381.101 277.805,333.234 334.553,327.384 340.424 C 317.523 350.321,303.620 358.779,289.785 363.301 C 275.763 367.883,274.429 367.964,212.793 367.966 C 181.802 367.968,155.352 368.187,154.015 368.455 C 147.728 369.712,145.264 377.884,149.847 382.276 L 152.039 384.375 211.430 384.375 C 267.318 384.375,271.330 384.283,279.459 382.820 C 304.444 378.321,326.609 366.197,343.341 347.877 C 356.079 333.930,395.606 285.869,397.495 282.031 C 406.686 263.354,392.037 241.342,371.094 242.360 C 359.728 242.913,360.733 242.138,323.850 278.768 C 287.920 314.452,287.381 314.884,276.953 316.375 C 266.696 317.841,266.653 317.828,266.253 313.010 C 265.420 302.965,264.092 301.665,226.765 274.371 C 167.990 231.392,161.713 230.193,102.201 250.587 L 77.474 259.060 76.977 255.743 C 74.986 242.472,62.022 232.532,48.828 234.161 M55.768 251.528 C 59.665 253.009,60.050 254.611,69.996 310.747 C 81.380 374.999,81.191 372.468,74.870 375.851 C 73.177 376.757,40.463 382.772,39.888 382.283 C 39.482 381.939,17.288 256.749,17.573 256.417 C 19.161 254.567,52.529 250.296,55.768 251.528 M50.547 349.666 C 44.723 355.490,49.759 365.165,57.779 363.561 C 62.612 362.595,65.466 356.548,63.190 352.097 C 60.742 347.311,54.166 346.047,50.547 349.666 M121.349 368.516 C 115.661 369.612,113.593 377.775,117.909 382.091 C 123.036 387.219,131.250 383.677,131.250 376.339 C 131.250 372.793,128.522 368.750,126.129 368.750 C 125.578 368.750,124.660 368.624,124.087 368.469 C 123.515 368.315,122.283 368.335,121.349 368.516 " stroke="none" fill="#052faa" fill-rule="evenodd"></path></g></svg>