<?xml version="1.0" encoding="UTF-8"?>
<svg version="1.1" xmlns="http://www.w3.org/2000/svg" width="512" height="512">
<path d="M0 0 C0.54640137 0.4846875 1.09280273 0.969375 1.65576172 1.46875 C41.67210314 37.11102337 68.31780046 88.35672909 73 142 C73.01333237 143.35672782 73.00661701 144.71385209 72.9765625 146.0703125 C72.93840531 149.66471952 72.957003 152.5571869 74 156 C76.75106423 158.64559212 79.52924975 160.35638302 82.85546875 162.21875 C93.83471539 168.43804996 99.68326342 179.46598196 103.1706543 191.20117188 C104.72165037 198.30552833 104.57295575 205.41447829 104.53125 212.65625 C104.53395331 214.33288802 104.53784265 216.0095245 104.54284668 217.68615723 C104.5487024 221.17910876 104.54030713 224.6716477 104.52148438 228.16455078 C104.49869692 232.60576486 104.51184135 237.04601151 104.53577423 241.48719025 C104.55033951 244.9431262 104.54557758 248.39883884 104.53526306 251.8547821 C104.53262528 253.49077982 104.53575962 255.12679889 104.54518127 256.76277161 C104.62125325 273.67712811 101.09408732 287.6121402 89.1875 300.3125 C86.21734965 303.19668141 83.58428328 304.614232 79.796875 306.20703125 C77.0546303 307.66650737 77.0546303 307.66650737 75 310 C73.63358883 315.45510077 73.86757663 320.78639707 74.0625 326.375 C74.1178578 329.32029388 74.14561577 332.26517511 74.16015625 335.2109375 C74.16826073 336.30334999 74.16826073 336.30334999 74.17652893 337.41783142 C74.09781094 358.27116569 66.12146268 376.4373749 51.74609375 391.3359375 C37.26986279 404.85399217 19.78839074 411.44682679 0.13671875 411.09765625 C-1.90429377 411.09359701 -3.94531157 411.09170669 -5.98632812 411.09179688 C-9.16480858 411.08365894 -12.34081526 411.06198039 -15.51879883 411.00366211 C-18.61411765 410.95254501 -21.70516787 410.95790646 -24.80078125 410.97265625 C-25.74979813 410.94180435 -26.698815 410.91095245 -27.67658997 410.87916565 C-30.39879972 410.91865375 -32.45213887 411.03123192 -35 412 C-37.32713663 414.7587896 -38.6034028 417.70048812 -40 421 C-47.2361464 430.40848848 -56.58821999 434.20440615 -68 436 C-71.19104653 436.25086486 -74.35878066 436.28160409 -77.55859375 436.265625 C-78.42839371 436.26753845 -79.29819366 436.2694519 -80.1943512 436.27142334 C-82.01864921 436.27277341 -83.84295723 436.26916019 -85.66723633 436.26074219 C-88.4274703 436.25003889 -91.18705165 436.26067123 -93.94726562 436.2734375 C-109.46023675 436.28708851 -122.44325253 435.56377722 -134.4375 424.65234375 C-141.17304293 417.5295071 -144.08934185 408.68753713 -144.375 399 C-144.04679758 388.3197464 -140.45643165 379.82479834 -133.1484375 372.0234375 C-126.01107127 365.34104282 -117.8827609 361.91947888 -108.09301758 361.83886719 C-106.67047417 361.82445587 -106.67047417 361.82445587 -105.2191925 361.80975342 C-104.20455429 361.80550354 -103.18991608 361.80125366 -102.14453125 361.796875 C-100.55930916 361.78832489 -100.55930916 361.78832489 -98.94206238 361.77960205 C-96.7070719 361.77016784 -94.47206761 361.76362435 -92.23706055 361.75976562 C-88.84203368 361.75008422 -85.44761869 361.71905509 -82.05273438 361.6875 C-79.87500357 361.6809668 -77.69726846 361.67571757 -75.51953125 361.671875 C-74.51501419 361.6595282 -73.51049713 361.6471814 -72.47554016 361.63446045 C-60.94111591 361.67036452 -51.24848831 364.81113467 -42.953125 373.02734375 C-36 380.74186467 -36 380.74186467 -36 386 C-29.81052699 385.95551556 -23.62204213 385.88533845 -17.43310547 385.79248047 C-15.33260002 385.76444795 -13.23199255 385.74314634 -11.13134766 385.72900391 C6.49329291 385.6032932 20.47093562 384.21031524 34.25390625 372.00390625 C46.30333326 359.54292386 48.2344083 344.44813657 48.625 327.9375 C48.66326971 326.5813576 48.70232633 325.22523718 48.7421875 323.86914062 C48.83584107 320.57955896 48.9215686 317.28997388 49 314 C48.40396973 313.95246582 47.80793945 313.90493164 47.19384766 313.85595703 C38.19731893 313.02115223 31.80061204 309.64884815 25.5703125 303.02734375 C18.99480393 294.53806776 17.85111046 286.33683926 17.83886719 275.95239258 C17.83390228 274.94360046 17.82893738 273.93480835 17.82382202 272.89544678 C17.80923124 269.56180129 17.80240298 266.22820341 17.796875 262.89453125 C17.79112037 260.57150776 17.78536267 258.24848429 17.77960205 255.92546082 C17.76910038 251.05406473 17.76325246 246.18268511 17.75976562 241.3112793 C17.75428719 235.08514116 17.73026932 228.8592224 17.70179367 222.63315296 C17.68312019 217.83315913 17.67795914 213.03321761 17.67642975 208.23319054 C17.6734126 205.9387969 17.66541592 203.64440397 17.65224457 201.35004616 C17.63508817 198.13139042 17.63708801 194.91326365 17.64355469 191.69458008 C17.6343399 190.75656052 17.62512512 189.81854095 17.6156311 188.85209656 C17.68614015 177.58403718 20.89086515 169.46849572 28.59375 161.3125 C33.9664191 156.24394425 40.57102443 153 48 153 C43.70220333 116.38041739 33.90740388 82.1549985 12 52 C11.59813477 51.4426416 11.19626953 50.8852832 10.78222656 50.31103516 C-7.67238697 24.93408271 -31.11544237 5.31184895 -59 -9 C-59.61343262 -9.32162109 -60.22686523 -9.64324219 -60.85888672 -9.97460938 C-88.47166687 -24.32805231 -121.87256841 -31.76903178 -153 -30 C-153.73911621 -29.95891113 -154.47823242 -29.91782227 -155.23974609 -29.87548828 C-190.36686791 -27.7467779 -224.67157401 -17.81548781 -254 2 C-254.57298828 2.38655762 -255.14597656 2.77311523 -255.73632812 3.17138672 C-262.83627057 7.99850509 -269.48993214 13.06143666 -275.77734375 18.9296875 C-277.78126734 20.79625956 -279.83752915 22.55616074 -281.9375 24.3125 C-318.66139693 56.6295293 -337.31446226 105.40480087 -342 153 C-340.1746875 153.17015625 -340.1746875 153.17015625 -338.3125 153.34375 C-329.50647022 154.4600073 -323.15405617 160.12908081 -317.625 166.76171875 C-312.17539576 174.26802459 -311.84942944 182.08896047 -311.83886719 191.04760742 C-311.83141983 192.56079559 -311.83141983 192.56079559 -311.82382202 194.10455322 C-311.80923124 197.43819871 -311.80240298 200.77179659 -311.796875 204.10546875 C-311.79112037 206.42849224 -311.78536267 208.75151571 -311.77960205 211.07453918 C-311.76910038 215.94593527 -311.76325246 220.81731489 -311.75976562 225.6887207 C-311.75428719 231.91485884 -311.73026932 238.1407776 -311.70179367 244.36684704 C-311.68312019 249.16684087 -311.67795914 253.96678239 -311.67642975 258.76680946 C-311.6734126 261.0612031 -311.66541592 263.35559603 -311.65224457 265.64995384 C-311.63508817 268.86860958 -311.63708801 272.08673635 -311.64355469 275.30541992 C-311.6343399 276.24343948 -311.62512512 277.18145905 -311.6156311 278.14790344 C-311.68685542 289.53027052 -314.93528917 297.86132928 -322.921875 305.9453125 C-330.63131244 313.08700067 -338.47957967 315.35108092 -348.90625 315.2109375 C-363.90820963 314.18807662 -375.75019305 307.82701451 -386 297 C-394.08852093 287.28447773 -398.08278505 277.1806306 -398.17700195 264.5703125 C-398.18357315 263.83943924 -398.19014435 263.10856598 -398.19691467 262.35554504 C-398.21656295 259.9453621 -398.22829509 257.53524142 -398.23828125 255.125 C-398.24235678 254.29630402 -398.2464323 253.46760803 -398.25063133 252.61380005 C-398.27146217 248.22219089 -398.28577333 243.83061265 -398.29516602 239.43896484 C-398.30618741 234.93485375 -398.34054604 230.43124253 -398.38033772 225.92730713 C-398.40667128 222.43710505 -398.41487286 218.94701872 -398.41844749 215.45672607 C-398.42327517 213.79836678 -398.43477802 212.14001129 -398.45348549 210.48175049 C-398.63316655 193.49020334 -395.21999745 179.529444 -383.25 166.75 C-380.92530254 164.44353546 -379.12840658 163.0567216 -376.1171875 161.7265625 C-372.61789941 160.14594412 -370.52540838 158.92324669 -368 156 C-366.50497991 150.89848664 -366.58873509 145.5026119 -366.36328125 140.2265625 C-365.26047502 115.54396649 -356.55725772 91.10172963 -346 69 C-345.44699219 67.80246094 -344.89398438 66.60492188 -344.32421875 65.37109375 C-335.54860243 46.96114925 -323.38445711 30.4800284 -309.46484375 15.65234375 C-307.50451132 13.54288936 -305.63945317 11.41054058 -303.8125 9.1875 C-300.56710327 5.36289649 -296.83494689 2.21745544 -293 -1 C-292.13632812 -1.75152344 -291.27265625 -2.50304688 -290.3828125 -3.27734375 C-277.66821455 -14.18295419 -263.84028682 -23.25453314 -249 -31 C-248.30132812 -31.36834961 -247.60265625 -31.73669922 -246.8828125 -32.11621094 C-227.25422163 -42.3291014 -205.83379563 -49.42051965 -184 -53 C-182.72511719 -53.21140625 -181.45023438 -53.4228125 -180.13671875 -53.640625 C-115.08266647 -63.25790834 -48.98111806 -43.76842073 0 0 Z M-366.7734375 186.2578125 C-373.63235193 194.70510711 -373.60952067 203.60913516 -373.56640625 214.05859375 C-373.57165193 215.61361561 -373.57793184 217.1686343 -373.58518982 218.72364807 C-373.59555285 221.9706223 -373.5910924 225.21715716 -373.57641602 228.46411133 C-373.55923657 232.60100403 -373.5827331 236.73650655 -373.61790562 240.87324429 C-373.63999023 244.08117164 -373.63841163 247.288772 -373.6301403 250.49675179 C-373.62932677 252.02080879 -373.63607451 253.54489127 -373.65091133 255.06887627 C-373.7426837 266.19963055 -372.20373095 274.24236848 -364.875 282.875 C-359.80962504 287.56351993 -353.36857001 289.56333352 -346.625 290.4375 C-343.43319633 289.90553272 -341.5525001 288.98527786 -339 287 C-337.28093815 284.1784477 -336.74946629 282.07135855 -336.74603271 278.78747559 C-336.73757324 277.53839668 -336.73757324 277.53839668 -336.72894287 276.26408386 C-336.73299133 275.35902603 -336.73703979 274.4539682 -336.74121094 273.52148438 C-336.7377063 272.56172195 -336.73420166 271.60195953 -336.73059082 270.6131134 C-336.72178682 267.43991874 -336.72761804 264.26694694 -336.734375 261.09375 C-336.73302797 258.88944455 -336.73108712 256.68513939 -336.72857666 254.48083496 C-336.7256272 249.86072969 -336.72991738 245.24070175 -336.73925781 240.62060547 C-336.75065218 234.69543045 -336.74409177 228.77043662 -336.73211288 222.84526825 C-336.72488953 218.29342277 -336.72718442 213.74162032 -336.73236847 209.18977356 C-336.73370365 207.00486734 -336.73206186 204.81995722 -336.72740936 202.63505554 C-336.72233641 199.58277013 -336.73006539 196.53077909 -336.74121094 193.47851562 C-336.73716248 192.57345779 -336.73311401 191.66839996 -336.72894287 190.73591614 C-336.73458252 189.90319687 -336.74022217 189.0704776 -336.74603271 188.21252441 C-336.74678677 187.49134682 -336.74754082 186.77016922 -336.74831772 186.02713776 C-337.04590179 183.63029082 -337.74326318 182.05558412 -339 180 C-348.47049911 172.83313581 -359.17577416 179.50158419 -366.7734375 186.2578125 Z M45 180 C43.27992907 182.81512745 42.74865235 184.92746929 42.73930359 188.20579529 C42.73221878 189.0370694 42.72513397 189.86834351 42.71783447 190.72480774 C42.72031189 191.62829453 42.72278931 192.53178131 42.7253418 193.46264648 C42.72023087 194.42080261 42.71511993 195.37895874 42.70985413 196.3661499 C42.69595016 199.534528 42.69691549 202.70268877 42.69921875 205.87109375 C42.69533234 208.07300396 42.69099778 210.27491342 42.68623352 212.4768219 C42.67876963 217.09272695 42.67906389 221.70855551 42.68432617 226.32446289 C42.69012175 232.24063029 42.6731883 238.15648472 42.6499815 244.07260036 C42.63525245 248.62020194 42.63437133 253.167728 42.63749123 257.7153492 C42.63697762 259.89664391 42.6317326 262.0779428 42.62167931 264.2592144 C42.60934817 267.30900307 42.61608681 270.35818016 42.62768555 273.40795898 C42.62004181 274.30942154 42.61239807 275.21088409 42.60452271 276.1396637 C42.64469055 280.91614864 42.88366335 284.12529305 46 288 C49.77143892 290.63377346 53.02513688 290.0978898 57.41015625 289.53125 C64.6420427 288.04778611 70.67337454 283.98516522 75 278 C79.90067938 270.15246114 79.60327559 261.87727007 79.56640625 252.94140625 C79.57165193 251.38638439 79.57793184 249.8313657 79.58518982 248.27635193 C79.59555285 245.0293777 79.5910924 241.78284284 79.57641602 238.53588867 C79.55923657 234.39899597 79.5827331 230.26349345 79.61790562 226.12675571 C79.63999023 222.91882836 79.63841163 219.711228 79.6301403 216.50324821 C79.62932677 214.97919121 79.63607451 213.45510873 79.65091133 211.93112373 C79.73692262 201.49911121 78.56606139 193.6842805 71.89453125 185.37890625 C64.49665248 178.92484691 53.93904958 173.23531383 45 180 Z M-118 393 C-119.4367494 397.51672716 -119.42313369 401.0479492 -117.5 405.375 C-113.56403114 409.5077673 -109.33842812 411.10657417 -103.73632812 411.38818359 C-102.16808716 411.40775638 -100.59956734 411.41041743 -99.03125 411.3984375 C-98.1921106 411.40130768 -97.35297119 411.40417786 -96.48840332 411.40713501 C-94.72354452 411.40916618 -92.95866272 411.40370296 -91.19384766 411.39111328 C-88.50762115 411.37504559 -85.82289901 411.39099382 -83.13671875 411.41015625 C-81.41405921 411.40817365 -79.6914006 411.40432962 -77.96875 411.3984375 C-77.17376099 411.40451019 -76.37877197 411.41058289 -75.55969238 411.4168396 C-69.66538609 411.34327437 -64.66182487 410.39564238 -60.125 406.3125 C-58.48448389 402.94032799 -57.76331826 399.72235833 -58 396 C-60.20705284 391.50100768 -62.47306033 389.07596788 -67 387 C-70.24136078 386.56480846 -73.45217015 386.57949893 -76.71875 386.6015625 C-77.65424683 386.59869232 -78.58974365 386.59582214 -79.55358887 386.59286499 C-81.52710578 386.59082785 -83.50064305 386.5963332 -85.47412109 386.60888672 C-88.4897184 386.62494525 -91.50397548 386.60902605 -94.51953125 386.58984375 C-96.44010712 386.59182624 -98.36068215 386.59567005 -100.28125 386.6015625 C-101.18033081 386.59548981 -102.07941162 386.58941711 -103.0057373 386.5831604 C-109.27538174 386.65337647 -113.94304036 387.84931457 -118 393 Z " fill="#052faa" transform="translate(403,66)"/>
<path d="M0 0 C0.69000924 -0.00297112 1.38001847 -0.00594224 2.09093708 -0.0090034 C4.39673229 -0.01765579 6.70247538 -0.01919573 9.00828552 -0.02069092 C10.66440949 -0.02532167 12.32053239 -0.03034668 13.97665405 -0.03573608 C18.47288768 -0.04884035 22.96910638 -0.05530161 27.46535611 -0.05974674 C30.27813431 -0.06268165 33.09090846 -0.06678733 35.90368462 -0.07125092 C44.71470354 -0.08492286 53.52571319 -0.09459006 62.33674198 -0.09845281 C72.48759152 -0.10292797 82.63830603 -0.12045198 92.78911453 -0.1494534 C100.64751475 -0.17112098 108.50587712 -0.18115985 116.36430687 -0.18249393 C121.05171686 -0.18353865 125.73899987 -0.18937489 130.42637825 -0.20731354 C134.84150214 -0.2238814 139.2564048 -0.22590776 143.67154884 -0.21717453 C145.28391363 -0.2164087 146.89629074 -0.2206863 148.50862503 -0.23063278 C165.09831446 -0.32689641 179.64087827 2.49664574 192.18186951 14.16387939 C203.5162251 26.31469281 207.33855127 39.54871144 207.30027771 55.80377197 C207.30794411 57.50321205 207.30794411 57.50321205 207.31576538 59.23698425 C207.3296013 62.96136847 207.32870896 66.68556636 207.32640076 70.40997314 C207.33029122 73.01395231 207.33462662 75.61793085 207.33938599 78.22190857 C207.34757742 83.67304113 207.34670576 89.1241218 207.34129333 94.57525635 C207.33526008 100.84812818 207.34755588 107.12077534 207.3688634 113.39360887 C207.38870333 119.46072568 207.39164127 125.52773858 207.38812828 131.59488487 C207.38863952 134.16114517 207.39383995 136.7274092 207.4039402 139.29364967 C207.41636534 142.89224859 207.40947592 146.49033663 207.39793396 150.08892822 C207.4055777 151.13503265 207.41322144 152.18113708 207.4210968 153.25894165 C207.31137245 168.8449196 202.15374911 181.59766588 191.44358826 192.91778564 C181.90212 201.68853757 169.53610771 206.30376834 156.70018005 206.21881104 C155.20992096 206.21269846 153.7196611 206.20677134 152.22940063 206.20100403 C151.44479147 206.19633181 150.6601823 206.19165958 149.8517971 206.18684578 C145.67338996 206.16758036 141.4950558 206.18288647 137.31663513 206.19317627 C132.01009084 206.20541558 126.7043532 206.20710029 121.39793396 206.16461182 C117.09929077 206.13110827 112.802235 206.13672231 108.50359535 206.16818047 C106.87181981 206.1730883 105.23993529 206.16390228 103.60832787 206.13997078 C94.66981298 205.79527923 94.66981298 205.79527923 86.47669983 208.73977661 C84.46274094 210.76288917 82.7686498 212.8829268 81.02561951 215.14044189 C79.70965646 216.34845382 78.36465794 217.52561903 76.99217224 218.66900635 C72.96293967 222.14133167 69.2582909 225.86363041 65.56077576 229.68341064 C64.17010512 231.10132238 62.77881018 232.51862203 61.38694763 233.93536377 C59.23074699 236.13481128 57.07866002 238.33771917 54.93699646 240.55133057 C52.84405364 242.71125521 50.73521166 244.85457417 48.62327576 246.99591064 C47.68065636 247.98194527 47.68065636 247.98194527 46.71899414 248.98789978 C41.64708255 254.08958523 36.23740044 257.37772258 29.09202576 258.67169189 C21.54634865 258.57751808 14.80053697 257.41772429 8.95140076 252.33966064 C3.05266675 245.97100653 0.53689154 239.90733476 0.73265076 231.23809814 C0.7368956 230.51553329 0.74114044 229.79296844 0.74551392 229.04850769 C0.76215533 226.76625496 0.79977702 224.48492256 0.83811951 222.20294189 C0.85318527 220.64501204 0.86687035 219.08706819 0.87913513 217.52911377 C0.91201069 213.73254132 0.96368861 209.93664702 1.02561951 206.14044189 C0.45134216 206.16001953 -0.12293518 206.17959717 -0.71461487 206.19976807 C-14.89377702 206.47776201 -27.33098549 200.42871883 -37.54469299 190.85137939 C-47.95202786 179.23933695 -51.45204709 165.48175685 -51.36256409 150.13653564 C-51.36782104 149.00313751 -51.373078 147.86973938 -51.37849426 146.70199585 C-51.39158688 142.99383337 -51.38299412 139.28610796 -51.37281799 135.57794189 C-51.3748418 132.97825031 -51.3777558 130.37855928 -51.3815155 127.77886963 C-51.38592434 122.34562207 -51.3798452 116.91253565 -51.36549377 111.47930908 C-51.34917181 105.22851548 -51.35446204 98.97801561 -51.37097299 92.72722912 C-51.3863111 86.67450654 -51.38458135 80.62192578 -51.37582779 74.56918335 C-51.37383653 72.01130125 -51.37624701 69.45341157 -51.38326645 66.89553833 C-51.39094491 63.31161063 -51.37918697 59.72823507 -51.36256409 56.14434814 C-51.36863678 55.10295685 -51.37470947 54.06156555 -51.38096619 52.98861694 C-51.25369622 38.06394075 -46.51405726 25.13377234 -36.23219299 14.20684814 C-26.16846972 4.99627789 -13.57070652 0.03272811 0 0 Z M-20.97438049 35.14044189 C-24.05975385 40.08266609 -26.09119484 44.89946658 -26.12155151 50.76852417 C-26.12870682 51.71885529 -26.13586212 52.6691864 -26.14323425 53.64831543 C-26.14592316 54.68937439 -26.14861206 55.73043335 -26.15138245 56.80303955 C-26.15795364 57.90092804 -26.16452484 58.99881653 -26.17129517 60.12997437 C-26.19104113 63.77148505 -26.20269477 67.41295443 -26.21266174 71.05450439 C-26.21673727 72.29823193 -26.2208128 73.54195946 -26.22501183 74.8233757 C-26.24372758 80.72924672 -26.25829054 86.63510462 -26.2666238 92.5409981 C-26.27638139 99.34304621 -26.30266251 106.14476761 -26.34312469 112.94670069 C-26.37702332 118.84933142 -26.38877715 124.75188294 -26.39282799 130.65461349 C-26.39769378 133.15917549 -26.40930747 135.663734 -26.42786598 138.16823196 C-26.45226432 141.67957632 -26.45129035 145.19007353 -26.4443512 148.70147705 C-26.45716125 149.73039062 -26.46997131 150.7593042 -26.48316956 151.81939697 C-26.41802233 160.89418399 -23.78061516 167.91325926 -17.61891174 174.63653564 C-12.5165382 179.30260171 -7.01643364 181.20551478 -0.20094299 181.35137939 C0.70655701 181.37973877 1.61405701 181.40809814 2.54905701 181.43731689 C4.44209338 181.4891809 6.33535176 181.53351683 8.22874451 181.57012939 C13.46666103 181.74818888 17.6464558 181.95436304 22.02561951 185.14044189 C25.40175808 190.34027328 25.49418934 194.91934216 25.53733826 200.91387939 C25.55528946 201.8376236 25.57324066 202.7613678 25.59173584 203.71310425 C25.64567375 206.64717115 25.67968151 209.58107691 25.71311951 212.51544189 C25.74630716 214.51155799 25.78079816 216.50765286 25.81663513 218.50372314 C25.90139076 223.38251283 25.96828068 228.26125609 26.02561951 233.14044189 C32.03322155 228.17671035 37.47697688 222.7708408 42.93968201 217.21856689 C43.88132256 216.26741996 44.82341888 215.31672405 45.76594543 214.36645508 C49.73742382 210.36165116 53.70445352 206.35251698 57.66136169 202.33331299 C60.0944305 199.86253932 62.53480628 197.39918701 64.97997665 194.94039154 C66.35304062 193.55541768 67.7179303 192.16235515 69.08265686 190.76916504 C69.9205777 189.92778992 70.75849854 189.08641479 71.62181091 188.21954346 C72.3534848 187.47819153 73.08515869 186.7368396 73.83900452 185.97302246 C78.48606694 182.07836504 82.9383332 181.84830985 88.81004333 181.86920166 C89.96229149 181.86136154 89.96229149 181.86136154 91.13781738 181.85336304 C92.8003314 181.84314887 94.46287717 181.83734715 96.12542152 181.83548164 C98.761957 181.8318073 101.3981199 181.81505064 104.03457642 181.79472351 C111.5286718 181.73941994 119.02282198 181.70867364 126.51707458 181.68414307 C131.10709483 181.66821579 135.69685078 181.63794189 140.28673363 181.59937859 C142.03010426 181.58777311 143.77352227 181.58179863 145.51693153 181.58169746 C147.96257019 181.58150412 150.4074864 181.56314414 152.85301208 181.54107666 C153.56445374 181.54565384 154.27589539 181.55023102 155.00889587 181.5549469 C163.15759661 181.43880447 169.33977243 178.59495363 175.26390076 173.11309814 C179.66754209 168.18219155 182.1386958 162.10411819 182.17279053 155.51235962 C182.17994583 154.5620285 182.18710114 153.61169739 182.19447327 152.63256836 C182.19716217 151.5915094 182.19985107 150.55045044 182.20262146 149.47784424 C182.21247826 147.83101151 182.21247826 147.83101151 182.22253418 146.15090942 C182.24228014 142.50939874 182.25393378 138.86792936 182.26390076 135.22637939 C182.26797628 133.98265186 182.27205181 132.73892433 182.27625084 131.45750809 C182.29496659 125.55163707 182.30952955 119.64577917 182.31786281 113.73988569 C182.3276204 106.93783758 182.35390152 100.13611618 182.3943637 93.3341831 C182.42826234 87.43155237 182.44001617 81.52900085 182.444067 75.62627029 C182.4489328 73.1217083 182.46054649 70.61714979 182.479105 68.11265182 C182.50350333 64.60130747 182.50252936 61.09081026 182.49559021 57.57940674 C182.50840027 56.55049316 182.52121033 55.52157959 182.53440857 54.46148682 C182.46971978 45.45055861 179.85056081 38.34524394 173.74046326 31.64434814 C168.15151144 26.74287559 161.70347685 25.01898928 154.42341614 24.99327087 C153.41229183 24.98775584 153.41229183 24.98775584 152.38074076 24.9821294 C150.11701427 24.97109716 147.8533337 24.96724947 145.58958435 24.96343994 C143.96829584 24.95717482 142.34700877 24.95052798 140.72572327 24.94352722 C135.39601135 24.92248612 130.06629915 24.91212323 124.73655701 24.90216064 C122.9007783 24.89811279 121.06499974 24.89399586 119.22922134 24.88981056 C110.6024123 24.87075699 101.9756118 24.85652759 93.34878576 24.84819859 C83.39763617 24.83843203 73.44670936 24.8121284 63.49563825 24.7716977 C55.80038211 24.74150785 48.10518971 24.7267269 40.40987551 24.72341758 C35.81582228 24.72106991 31.22200701 24.71214677 26.62801743 24.68695641 C22.30234533 24.6636211 17.97706692 24.65946428 13.65134811 24.66971779 C12.0683562 24.67021197 10.48534456 24.66392624 8.90241241 24.65016174 C-2.90328166 24.55329394 -12.81039684 25.83138002 -20.97438049 35.14044189 Z " fill="#052faa" transform="translate(177.97438049316406,126.85955810546875)"/>
<path d="M0 0 C4.76151547 2.49315402 7.62166172 5.93249605 10.1328125 10.578125 C11.90306344 16.92152421 11.29970818 21.76172641 8.16015625 27.4375 C5.49206768 31.25604877 2.34026763 33.77980662 -2.1171875 35.265625 C-8.70894413 36.0110579 -14.00938347 35.82388362 -19.45703125 31.796875 C-23.2624156 28.28696755 -24.83504066 25.42581176 -25.4921875 20.39453125 C-25.75515652 13.8120879 -25.31851 9.41224507 -21.1171875 4.265625 C-15.14020335 -1.24726391 -7.74565876 -2.68668606 0 0 Z " fill="#052faa" transform="translate(205.1171875,214.734375)"/>
<path d="M0 0 C4.59254054 2.63294147 8.13049459 5.92839465 9.640625 11.12890625 C10.35866502 16.62640013 10.6010651 22.08838438 8.015625 27.12890625 C4.78407342 31.21086614 1.56719234 33.48671714 -3.359375 35.12890625 C-10.24444892 35.86315364 -14.76395316 35.26951841 -20.359375 31.12890625 C-24.44636307 26.8209999 -26.15450067 23.21179525 -26.734375 17.31640625 C-26.57214078 11.94239786 -24.55930466 7.44945869 -20.86328125 3.55078125 C-15.01152052 -1.52755475 -7.32054861 -2.70278533 0 0 Z " fill="#052faa" transform="translate(322.359375,214.87109375)"/>
<path d="M0 0 C4.41854291 3.11306432 8.02390999 6.75922996 9.75 11.9375 C10.28385142 17.90226294 10.30270149 22.89495595 6.75 27.9375 C2.13824821 32.57105676 -1.35989583 35.06394969 -8.0625 35.1875 C-13.43524174 35.10172328 -16.99450134 34.18238455 -20.91015625 30.28515625 C-25.53074071 25.11840342 -26.56726812 21.33843047 -26.45703125 14.43359375 C-26.01337383 9.08459202 -23.61231769 6.07903887 -19.75 2.625 C-14.05164059 -2.13612924 -6.89637951 -2.25458561 0 0 Z " fill="#052faa" transform="translate(264.25,215.0625)"/>
</svg>
