<?xml version="1.0" encoding="UTF-8"?>
<svg version="1.1" xmlns="http://www.w3.org/2000/svg" width="512" height="512">
<path d="M0 0 C1.03520531 -0.01007584 1.03520531 -0.01007584 2.09132385 -0.02035522 C4.36328416 -0.03928665 6.63494823 -0.04325708 8.90698242 -0.04541016 C10.49493021 -0.0518421 12.08287681 -0.05857076 13.67082214 -0.06558228 C16.99704738 -0.07754334 20.32316885 -0.08126437 23.64941406 -0.08007812 C27.89623858 -0.07987515 32.14239234 -0.10716015 36.38905811 -0.14162254 C39.66890981 -0.16394304 42.94860149 -0.16791408 46.22852135 -0.16685867 C47.79331457 -0.16920754 49.35811269 -0.17799063 50.92283058 -0.19352341 C63.08237984 -0.30291758 70.26466173 1.14642266 79.14526367 9.84130859 C79.82331055 10.52580078 80.50135742 11.21029297 81.19995117 11.91552734 C81.8934668 12.57681641 82.58698242 13.23810547 83.30151367 13.91943359 C88.19554067 18.80408506 91.02828796 23.63011117 92.94995117 30.29052734 C92.94995117 30.95052734 92.94995117 31.61052734 92.94995117 32.29052734 C94.52583008 32.22091797 94.52583008 32.22091797 96.13354492 32.14990234 C111.91298382 31.65362264 111.91298382 31.65362264 117.94995117 36.29052734 C122.50789429 41.11030975 125.06687912 45.31948876 125.09039307 52.04595947 C125.09610321 53.02442337 125.10181335 54.00288727 125.10769653 55.01100159 C125.10937332 56.61938148 125.10937332 56.61938148 125.11108398 58.26025391 C125.11604889 59.39061569 125.12101379 60.52097748 125.12612915 61.68559265 C125.14076284 65.43411869 125.14755511 69.1826024 125.15307617 72.93115234 C125.158827 75.53326418 125.16458474 78.13537599 125.17034912 80.73748779 C125.17992032 85.5000782 125.18581707 90.26265946 125.18884587 95.0252583 C125.19332284 102.02592602 125.21085447 109.02639813 125.23984647 116.02700639 C125.26410947 122.09731818 125.27179226 128.16754951 125.27352142 134.23790741 C125.27654807 136.81667902 125.28457697 139.3954498 125.2977066 141.97418976 C125.31477267 145.58401776 125.31288503 149.19337061 125.30639648 152.80322266 C125.31561127 153.867379 125.32482605 154.93153534 125.33432007 156.02793884 C125.29571434 162.888903 124.73933363 168.15247208 120.01245117 173.47021484 C119.33182617 174.02966797 118.65120117 174.58912109 117.94995117 175.16552734 C117.26932617 175.74044922 116.58870117 176.31537109 115.88745117 176.90771484 C111.7922781 179.83047949 107.53259078 179.44487618 102.71826172 179.45166016 C101.87890076 179.45662506 101.03953979 179.46158997 100.17474365 179.46670532 C97.39537742 179.48132113 94.61606828 179.48812817 91.83666992 179.49365234 C89.90476988 179.4994045 87.97286986 179.50516223 86.04096985 179.51092529 C81.98824803 179.52143379 77.93554603 179.52727737 73.8828125 179.53076172 C68.6942524 179.53624452 63.50595498 179.56026867 58.31747723 179.58873367 C54.32572163 179.60737431 50.3340291 179.61256643 46.34223366 179.6140976 C44.42970151 179.61712169 42.51717041 179.62514202 40.60468102 179.63828278 C37.92619326 179.65537217 35.24834465 179.65345594 32.56982422 179.64697266 C31.78259476 179.65618744 30.9953653 179.66540222 30.1842804 179.67489624 C24.58180543 179.63250029 20.4118407 178.51043628 16.12182617 174.64208984 C15.65260742 174.07232422 15.18338867 173.50255859 14.69995117 172.91552734 C13.9806543 172.06861328 13.9806543 172.06861328 13.24682617 171.20458984 C9.75068402 166.044621 9.69355209 161.5072237 9.82495117 155.47802734 C9.83397461 154.68976563 9.84299805 153.90150391 9.85229492 153.08935547 C9.87572613 151.15628068 9.91159279 149.22336355 9.94995117 147.29052734 C8.81557617 147.33693359 7.68120117 147.38333984 6.51245117 147.43115234 C-9.59342341 147.89897265 -9.59342341 147.89897265 -15.05004883 143.29052734 C-18.61431744 139.83706501 -21.73766955 135.97079615 -22.32420349 130.93823242 C-22.33484329 130.07093506 -22.34548309 129.2036377 -22.35644531 128.31005859 C-22.37243271 127.32223389 -22.3884201 126.33440918 -22.40489197 125.31665039 C-22.41025467 124.25615479 -22.41561737 123.19565918 -22.42114258 122.10302734 C-22.43017105 121.00837158 -22.43919952 119.91371582 -22.44850159 118.78588867 C-22.46300137 116.47268408 -22.47189014 114.15943849 -22.47558594 111.84619141 C-22.48750518 108.30350085 -22.53671527 104.76253904 -22.5871582 101.22021484 C-22.59661977 98.97282752 -22.60385608 96.72542949 -22.60864258 94.47802734 C-22.6281749 93.41753174 -22.64770721 92.35703613 -22.66783142 91.2644043 C-22.62269908 83.92895932 -22.62269908 83.92895932 -19.6484375 80.61303711 C-17.01901593 79.27473244 -15.80661183 78.81556833 -12.92504883 79.22802734 C-12.2624707 79.29892578 -11.59989258 79.36982422 -10.91723633 79.44287109 C-7.97939541 80.77657712 -7.39688139 82.35788553 -6.05004883 85.29052734 C-5.59171618 88.64762891 -5.58528029 91.98404064 -5.57348633 95.36865234 C-5.5579068 96.33583191 -5.54232727 97.30301147 -5.52627563 98.29949951 C-5.47884232 101.3798344 -5.45100881 104.45994299 -5.42504883 107.54052734 C-5.38859535 110.63523601 -5.34804995 113.72981528 -5.30239868 116.82440186 C-5.27510324 118.74851915 -5.25378208 120.67273182 -5.23886108 122.59698486 C-5.22859894 123.46168396 -5.21833679 124.32638306 -5.20776367 125.21728516 C-5.19802017 126.36381561 -5.19802017 126.36381561 -5.18807983 127.5335083 C-5.23929366 129.31780095 -5.23929366 129.31780095 -4.05004883 130.29052734 C-1.58560826 130.38553283 0.85069744 130.4161072 3.31542969 130.40405273 C4.47144684 130.40427177 4.47144684 130.40427177 5.65081787 130.40449524 C8.21019256 130.40379594 10.76949538 130.3960028 13.32885742 130.38818359 C15.09862732 130.38631947 16.86839774 130.38489554 18.63816833 130.38389587 C23.30546483 130.38007023 27.97273041 130.37023955 32.64001465 130.35919189 C37.39892153 130.34897878 42.15783338 130.34439847 46.91674805 130.33935547 C56.2611627 130.32861732 65.60555437 130.31154034 74.94995117 130.29052734 C76.63673019 126.9169693 76.14325591 123.09078688 76.17456055 119.37792969 C76.18595062 118.4541452 76.1973407 117.53036072 76.20907593 116.57858276 C76.31977371 106.90730281 76.36716815 97.23525668 76.40991211 87.56347656 C76.43217975 82.97520508 76.47393587 78.38774792 76.53295898 73.79980469 C76.60408802 68.26013918 76.64075076 62.72123961 76.6530304 57.1811409 C76.66342505 55.07201448 76.68583508 52.96291093 76.72062683 50.85404587 C76.76691477 47.89495797 76.7688237 44.93886285 76.76049805 41.97949219 C76.78409393 41.11372559 76.80768982 40.24795898 76.83200073 39.35595703 C76.73654438 32.3193736 73.85915554 29.0689221 68.94995117 24.29052734 C68.03275598 23.2521639 68.03275598 23.2521639 67.09703159 22.19282341 C64.25253569 18.98942515 61.99361666 17.48639542 57.74588013 16.68920898 C53.81305406 16.46408015 49.91950761 16.47503851 45.98510742 16.57177734 C44.54163928 16.58231277 43.09814666 16.58987323 41.65464783 16.59460449 C37.8780393 16.61553339 34.10331888 16.67933475 30.32739258 16.75158691 C27.23247788 16.80364754 24.1376907 16.82545773 21.04242802 16.84571075 C14.66237469 16.88786589 8.28252366 16.95329209 1.90332031 17.06591797 C0.77495255 17.08481079 -0.35341522 17.10370361 -1.51597595 17.12316895 C-3.98594479 17.00676611 -3.98594479 17.00676611 -5.05004883 18.29052734 C-5.17314336 20.89647296 -5.23615308 23.48001395 -5.26098633 26.08740234 C-5.28906675 27.70199561 -5.31773129 29.3165788 -5.34692383 30.93115234 C-5.38811804 33.48323155 -5.4249929 36.03512511 -5.45141602 38.58740234 C-5.47909584 41.04613466 -5.52498058 43.50400431 -5.57348633 45.96240234 C-5.5767392 46.72091492 -5.57999207 47.47942749 -5.58334351 48.26092529 C-5.68721143 52.75723836 -6.25845632 55.71708386 -9.05004883 59.29052734 C-12.14178634 60.8363961 -14.64434435 60.58412256 -18.05004883 60.29052734 C-20.24121094 58.85205078 -20.24121094 58.85205078 -22.05004883 56.29052734 C-22.65558361 53.19362569 -22.63434074 50.14160157 -22.61645508 46.99365234 C-22.62265366 46.08605164 -22.62885223 45.17845093 -22.63523865 44.24334717 C-22.64233692 42.32353791 -22.63916265 40.4036671 -22.62646484 38.48388672 C-22.61266025 35.56409408 -22.6465944 32.64754628 -22.68481445 29.72802734 C-22.68576632 27.8582349 -22.68390319 25.98843848 -22.67895508 24.11865234 C-22.69221329 23.25379211 -22.7054715 22.38893188 -22.71913147 21.49786377 C-22.62445428 15.24787571 -20.9691369 11.16462924 -17.05004883 6.29052734 C-11.7879182 1.29150325 -7.17096033 0.04395141 0 0 Z M92.94995117 48.29052734 C92.94115181 49.80483337 92.94115181 49.80483337 92.93217468 51.34973145 C92.874856 60.88345558 92.80204673 70.41695363 92.71423626 79.95044708 C92.66958989 84.8512252 92.63032116 89.75192128 92.60351562 94.65283203 C92.57742542 99.38625407 92.53698268 104.11935946 92.48676491 108.85258484 C92.4701348 110.65455677 92.45859658 112.45658342 92.45233727 114.25862122 C92.44265402 116.79107526 92.41454533 119.32272622 92.38232422 121.85498047 C92.38447685 122.961978 92.38447685 122.961978 92.38667297 124.09133911 C92.27103814 130.55602301 90.83006821 136.00389852 86.63745117 141.10302734 C79.95531411 146.54197611 74.31598366 146.75415735 65.98901367 146.80224609 C64.84330902 146.8201973 63.69760437 146.8381485 62.5171814 146.85664368 C58.86980838 146.91068171 55.22256577 146.94462252 51.57495117 146.97802734 C49.09706847 147.01120605 46.61920296 147.04569621 44.14135742 147.08154297 C38.07767228 147.16640462 32.01397013 147.2347822 25.94995117 147.29052734 C25.8420084 149.56032399 25.76438941 151.83157931 25.69995117 154.10302734 C25.65354492 155.36759766 25.60713867 156.63216797 25.55932617 157.93505859 C25.61062215 161.25980586 25.61062215 161.25980586 27.51965332 162.97598267 C30.86003547 164.78279066 33.43369984 164.67181016 37.2253418 164.67871094 C37.95101852 164.6839679 38.67669525 164.68922485 39.42436218 164.69464111 C41.8185287 164.70782428 44.21202811 164.69910939 46.60620117 164.68896484 C48.27242154 164.69098607 49.93864105 164.69389792 51.6048584 164.69766235 C55.09513785 164.70208341 58.58518681 164.69566178 62.07543945 164.68164062 C66.54791867 164.66454874 71.0198578 164.67439111 75.4923172 164.69235802 C78.93243474 164.70320182 82.37242437 164.6997468 85.81254578 164.69197464 C87.46156376 164.68997428 89.11059338 164.69242617 90.75959778 164.6994133 C93.06489802 164.70703776 95.36932528 164.69541056 97.67456055 164.67871094 C98.98598022 164.67632416 100.2973999 164.67393738 101.64855957 164.67147827 C105.23668438 164.25744091 106.39515824 163.75221295 108.94995117 161.29052734 C109.54555765 159.17317388 109.54555765 159.17317388 109.45115662 156.77392578 C109.46590782 155.38590759 109.46590782 155.38590759 109.48095703 153.96984863 C109.47128906 152.95676636 109.46162109 151.94368408 109.45166016 150.89990234 C109.45706314 149.83139038 109.46246613 148.76287842 109.46803284 147.6619873 C109.48056557 144.12122103 109.46399817 140.58126065 109.44604492 137.04052734 C109.4461998 134.5857743 109.44768697 132.13102102 109.45045471 129.67626953 C109.45184075 124.52804778 109.43924601 119.38010394 109.41650391 114.23193359 C109.38811906 107.62386049 109.39085406 101.01624938 109.40359402 94.40814209 C109.41053998 89.33817582 109.40277424 84.26831684 109.39033699 79.19836426 C109.38581197 76.7614381 109.38549481 74.32450047 109.38940239 71.88757324 C109.39230393 68.48519166 109.37585751 65.08345284 109.35400391 61.68115234 C109.35850555 60.66807007 109.3630072 59.65498779 109.36764526 58.61120605 C109.35774063 57.6858606 109.347836 56.76051514 109.33763123 55.80712891 C109.33520133 55.00261292 109.33277143 54.19809692 109.33026791 53.36920166 C108.85132154 50.75145327 108.0728154 49.86002459 105.94995117 48.29052734 C102.74857049 47.92691115 102.74857049 47.92691115 99.26245117 48.10302734 C98.08295898 48.13009766 96.9034668 48.15716797 95.68823242 48.18505859 C94.3327832 48.23726563 94.3327832 48.23726563 92.94995117 48.29052734 Z " fill="#000000" transform="translate(371.050048828125,332.70947265625)"/>
<path d="M0 0 C0.66298599 -0.00619858 1.32597198 -0.01239716 2.00904846 -0.01878357 C3.40323428 -0.02584764 4.79750505 -0.0227675 6.19165039 -0.01000977 C8.30840526 0.00385385 10.42072727 -0.0302463 12.53710938 -0.06835938 C23.80334878 -0.13377367 23.80334878 -0.13377367 28.234375 2.8671875 C33.67881128 8.42421183 34.37416917 15.04756423 34.87890625 22.56640625 C38.30010192 21.9499746 40.36411648 20.63502594 43.12890625 18.56640625 C47.6323877 15.50757678 50.41381346 14.47965875 55.87890625 14.56640625 C63.33491944 16.54678647 67.47408599 20.45780346 72.75390625 25.94140625 C73.511875 26.69679688 74.26984375 27.4521875 75.05078125 28.23046875 C79.85750262 33.12271897 83.07391867 37.10245237 83.44140625 44.19140625 C83.38035167 50.000313 80.71304087 53.70285313 77.41015625 58.31640625 C75.6913649 60.38837354 75.6913649 60.38837354 75.87890625 62.56640625 C76.74773437 62.7365625 77.6165625 62.90671875 78.51171875 63.08203125 C90.59828006 65.62372423 90.59828006 65.62372423 94.87890625 69.56640625 C98.86451671 76.24489943 98.35753721 82.490831 98.31640625 90.06640625 C98.33638672 91.37222656 98.35636719 92.67804688 98.37695312 94.0234375 C98.37598633 95.91642578 98.37598633 95.91642578 98.375 97.84765625 C98.37685303 98.99298828 98.37870605 100.13832031 98.38061523 101.31835938 C97.77264073 105.25436563 96.27165735 107.42559959 93.87890625 110.56640625 C93.45996094 111.14003906 93.04101562 111.71367188 92.609375 112.3046875 C89.797701 114.35473423 86.52249375 114.95456966 83.19140625 115.75390625 C82.48951172 115.93115234 81.78761719 116.10839844 81.06445312 116.29101562 C79.33826465 116.72549844 77.60887155 117.14721417 75.87890625 117.56640625 C77.08669544 120.84549747 78.42829091 123.45607388 80.50390625 126.25390625 C83.03612671 130.22881611 83.43768355 133.42056049 83.4453125 138.07421875 C81.86018025 145.04880063 75.77181631 149.97668 70.87890625 154.81640625 C70.16734375 155.53570312 69.45578125 156.255 68.72265625 156.99609375 C68.03171875 157.68445313 67.34078125 158.3728125 66.62890625 159.08203125 C66.005 159.70368164 65.38109375 160.32533203 64.73828125 160.96582031 C60.65342075 164.48214718 56.96533966 165.15645831 51.6875 165.1015625 C47.14675974 164.23635886 43.83990082 161.754391 40.12890625 159.09765625 C38.05693896 157.3788649 38.05693896 157.3788649 35.87890625 157.56640625 C35.67136719 158.57960937 35.46382813 159.5928125 35.25 160.63671875 C32.52357944 172.84026226 32.52357944 172.84026226 28.25390625 176.44140625 C22.28999524 180.19646133 17.64871489 179.78639049 10.66748047 179.80664062 C8.65028984 179.81630381 6.63413709 179.84730655 4.6171875 179.87890625 C2.69712891 179.88664062 2.69712891 179.88664062 0.73828125 179.89453125 C-0.43250977 179.90387695 -1.60330078 179.91322266 -2.80957031 179.92285156 C-7.70084926 179.39636474 -10.98229032 177.80282141 -14.30859375 174.19140625 C-17.31474358 169.26081741 -18.02693035 163.15327086 -19.12109375 157.56640625 C-22.40018497 158.77419544 -25.01076138 160.11579091 -27.80859375 162.19140625 C-32.39992898 165.11080242 -36.80600286 165.72883186 -42.12109375 164.56640625 C-47.87939208 161.81797515 -51.94659851 158.17311186 -56.37109375 153.62890625 C-57.28761719 152.7172168 -57.28761719 152.7172168 -58.22265625 151.78710938 C-63.03869842 146.91323263 -66.53636299 143.01928515 -66.74609375 135.87890625 C-66.63903246 129.69229314 -64.4964576 126.24095955 -60.65234375 121.52734375 C-58.91594001 119.71834578 -58.91594001 119.71834578 -59.12109375 117.56640625 C-60.14589844 117.33566406 -61.17070312 117.10492188 -62.2265625 116.8671875 C-63.58746521 116.53869374 -64.94813022 116.20921414 -66.30859375 115.87890625 C-66.98212891 115.73001953 -67.65566406 115.58113281 -68.34960938 115.42773438 C-73.84691657 114.06011161 -77.109687 111.71482941 -80.23364258 106.82495117 C-82.08635066 102.10984732 -81.4928809 96.77890864 -81.49169922 91.77685547 C-81.49606602 89.70456336 -81.5323906 87.63441475 -81.5703125 85.5625 C-81.57417969 84.24636719 -81.57804687 82.93023437 -81.58203125 81.57421875 C-81.59024902 80.3742627 -81.5984668 79.17430664 -81.60693359 77.93798828 C-80.94340668 73.33331152 -78.98296704 70.05021357 -75.33203125 67.140625 C-69.99074132 64.56089561 -65.02796204 63.80849102 -59.12109375 63.56640625 C-59.74826075 60.08126304 -61.17355904 57.8882823 -63.18359375 55.00390625 C-66.46501345 49.65084326 -67.52990558 44.7505413 -66.12109375 38.56640625 C-63.17681557 33.27975897 -59.09896143 29.14474879 -54.87109375 24.87890625 C-54.24074219 24.21568359 -53.61039062 23.55246094 -52.9609375 22.86914062 C-48.13547619 17.98962629 -43.61752372 14.67898255 -36.46875 14.5 C-30.75674016 15.7595714 -26.62801452 17.82016896 -21.93359375 21.32421875 C-20.21235566 22.7548466 -20.21235566 22.7548466 -18.12109375 22.56640625 C-18.08242188 21.6228125 -18.08242188 21.6228125 -18.04296875 20.66015625 C-17.65182803 14.75748718 -16.90111517 9.30955641 -13.12109375 4.56640625 C-8.64227714 1.04910844 -5.67011093 0.05043586 0 0 Z M-1.12109375 15.56640625 C-1.57484375 17.77328125 -2.02859375 19.98015625 -2.49609375 22.25390625 C-4.24431394 30.75661352 -4.24431394 30.75661352 -6.12109375 34.56640625 C-8.43359375 35.75390625 -8.43359375 35.75390625 -11.12109375 36.56640625 C-11.86359375 36.93765625 -12.60609375 37.30890625 -13.37109375 37.69140625 C-17.91533197 39.13730023 -22.60814022 39.56470286 -27.1171875 37.7734375 C-30.30148349 35.98612298 -33.27136923 33.84618587 -36.12109375 31.56640625 C-40.02395142 33.15308203 -42.45630357 35.69991106 -45.37109375 38.69140625 C-46.70914063 40.05652344 -46.70914063 40.05652344 -48.07421875 41.44921875 C-48.7496875 42.14789063 -49.42515625 42.8465625 -50.12109375 43.56640625 C-48.81062019 46.34656978 -47.30031124 48.71192607 -45.49609375 51.19140625 C-42.53430046 55.91972908 -42.14582166 60.11178715 -43.12109375 65.56640625 C-44.00440266 67.84102148 -45.00692683 69.87295674 -46.24609375 71.97265625 C-47.28151335 73.55557435 -47.28151335 73.55557435 -47.12109375 75.56640625 C-52.92910342 78.08211665 -58.95704169 79.1966169 -65.12109375 80.56640625 C-65.12109375 86.83640625 -65.12109375 93.10640625 -65.12109375 99.56640625 C-61.81078125 100.15421875 -61.81078125 100.15421875 -58.43359375 100.75390625 C-52.69934326 101.77213765 -49.8723078 103.06087198 -46.12109375 107.56640625 C-43.18025249 112.83963886 -42.15450724 117.63030431 -43.12109375 123.56640625 C-44.75563857 127.64475582 -47.38753764 131.14946112 -50.12109375 134.56640625 C-48.53441797 138.46926392 -45.98758894 140.90161607 -42.99609375 143.81640625 C-42.08601563 144.7084375 -41.1759375 145.60046875 -40.23828125 146.51953125 C-39.19027344 147.53273437 -39.19027344 147.53273437 -38.12109375 148.56640625 C-37.06921875 147.96828125 -36.01734375 147.37015625 -34.93359375 146.75390625 C-34.29164063 146.39039063 -33.6496875 146.026875 -32.98828125 145.65234375 C-31.48235408 144.77651163 -30.01354159 143.83704263 -28.55859375 142.87890625 C-23.78733778 140.30976842 -20.20795398 140.34676619 -15.05859375 141.69140625 C-9.79823454 143.43167546 -6.61752171 145.80982843 -3.93359375 150.75390625 C-2.71350927 154.9772756 -1.92774457 159.24506256 -1.12109375 163.56640625 C5.14890625 163.56640625 11.41890625 163.56640625 17.87890625 163.56640625 C18.29140625 161.35953125 18.70390625 159.15265625 19.12890625 156.87890625 C20.09880676 151.68993854 21.08622579 148.32564156 24.87890625 144.56640625 C29.78131689 141.73304451 34.97163341 139.97531119 40.62890625 141.00390625 C43.78158559 141.92884259 46.07900787 143.27935461 48.69140625 145.25390625 C51.47078336 147.74926267 51.47078336 147.74926267 53.71875 147.55859375 C56.97876984 146.06122478 59.1926689 143.56483291 61.62890625 141.00390625 C62.13550781 140.48376953 62.64210938 139.96363281 63.1640625 139.42773438 C64.4092503 138.14730541 65.64502127 136.85773071 66.87890625 135.56640625 C66.37359375 134.89996094 65.86828125 134.23351562 65.34765625 133.546875 C61.23508896 127.71257815 58.87607628 123.37718475 59.3828125 116.1484375 C60.31122458 111.31630851 61.98723536 107.37487865 65.56640625 103.953125 C70.40297462 101.05281796 76.42585748 100.62672129 81.87890625 99.56640625 C81.87890625 93.29640625 81.87890625 87.02640625 81.87890625 80.56640625 C79.83703125 80.13328125 77.79515625 79.70015625 75.69140625 79.25390625 C65.71387047 77.13745927 65.71387047 77.13745927 62.515625 72.65625 C60.0142541 66.98441722 58.46408892 61.73683537 59.87890625 55.56640625 C61.88586516 51.64212928 64.24753489 48.09727701 66.87890625 44.56640625 C63.07415203 40.00609801 59.12921004 35.71551233 54.87890625 31.56640625 C50.86156036 32.94378198 48.15148924 34.8966675 44.87890625 37.56640625 C38.69309493 39.62834336 33.43115178 39.1490206 27.50390625 36.44140625 C23.24365479 34.06067749 21.28307841 32.39324805 19.87890625 27.56640625 C19.08609761 23.5716737 18.46172991 19.6013393 17.87890625 15.56640625 C11.60890625 15.56640625 5.33890625 15.56640625 -1.12109375 15.56640625 Z " fill="#000000" transform="translate(413.12109375,-0.56640625)"/>
<path d="M0 0 C1.04141144 -0.00511093 2.08282288 -0.01022186 3.15579224 -0.01548767 C6.59106223 -0.02936327 10.02613113 -0.02842833 13.46142578 -0.02612305 C15.85507278 -0.03001121 18.24871909 -0.03434613 20.6423645 -0.03910828 C25.65743243 -0.04656622 30.67242995 -0.04628235 35.6875 -0.04101562 C42.10551416 -0.03522301 48.52323955 -0.05214933 54.94120598 -0.0753603 C59.88438596 -0.09011206 64.82749664 -0.09096733 69.77069473 -0.08785057 C72.13651221 -0.0883631 74.50233364 -0.09358796 76.86812973 -0.10366249 C80.18050497 -0.11603657 83.49232082 -0.1092288 86.8046875 -0.09765625 C87.77637878 -0.10529999 88.74807007 -0.11294373 89.74920654 -0.12081909 C96.48092705 -0.06899083 102.15226796 0.80435512 107.73876953 4.88793945 C114.23614432 11.76472298 116.66029803 17.84510829 116.6519928 27.30476379 C116.65405479 29.11990982 116.65405479 29.11990982 116.65615845 30.97172546 C116.65256317 32.29090469 116.6489679 33.61008392 116.64526367 34.96923828 C116.64498146 36.37882485 116.6451402 37.78841156 116.64570618 39.19799805 C116.64599282 43.01784099 116.64011751 46.83765247 116.63313222 50.65748811 C116.62687662 54.65200277 116.62629313 58.64651818 116.62510681 62.64103699 C116.62200001 70.20218644 116.61379538 77.76332142 116.60375732 85.3244645 C116.59257599 93.93384633 116.58708064 102.54322886 116.58206189 111.15261614 C116.57161223 128.8599717 116.55402538 146.56731379 116.53173828 164.2746582 C117.22315918 164.25653076 117.91458008 164.23840332 118.62695312 164.21972656 C119.5313916 164.20562744 120.43583008 164.19152832 121.36767578 164.17700195 C122.26534668 164.15887451 123.16301758 164.14074707 124.08789062 164.12207031 C126.53173828 164.2746582 126.53173828 164.2746582 129.15673828 165.8371582 C131.07385591 169.23568492 131.08035466 171.43434355 130.53173828 175.2746582 C128.33700022 178.25782813 127.1476776 179.17378237 123.45823669 179.77802277 C122.24297806 179.77953087 121.02771942 179.78103897 119.77563477 179.78259277 C119.09716964 179.78883274 118.41870451 179.7950727 117.71967983 179.80150175 C115.44704335 179.81745236 113.1754764 179.80482055 110.90283203 179.79223633 C109.27327855 179.79765657 107.64372996 179.80477868 106.01419067 179.81347656 C101.58855825 179.83172463 97.16329846 179.82463636 92.73765945 179.81196022 C88.10838052 179.8018402 83.47913369 179.81122312 78.84985352 179.81750488 C71.0754625 179.8247842 63.30122342 179.81518614 55.52685547 179.79614258 C46.53583442 179.77437326 37.54517618 179.78142443 28.55416393 179.8034482 C20.83770483 179.82159411 13.12135502 179.8241645 5.40488148 179.81369352 C0.79483403 179.80745413 -3.81504283 179.80663518 -8.42507935 179.81983948 C-12.75901415 179.83138562 -17.09248074 179.82339513 -21.4263649 179.80026245 C-23.01788683 179.79496871 -24.6094481 179.79650053 -26.20095444 179.80531311 C-28.37188944 179.81622677 -30.54131941 179.80255836 -32.7121582 179.78259277 C-33.92741684 179.78108467 -35.14267548 179.77957657 -36.39476013 179.77802277 C-40.08420103 179.17378237 -41.27352366 178.25782813 -43.46826172 175.2746582 C-44.0168781 171.43434355 -44.01037935 169.23568492 -42.09326172 165.8371582 C-39.0925682 164.05103111 -37.73418375 164.10773732 -34.30419922 164.17700195 C-32.9475415 164.19815063 -32.9475415 164.19815063 -31.56347656 164.21972656 C-30.52634521 164.24691772 -30.52634521 164.24691772 -29.46826172 164.2746582 C-29.47492355 163.39626785 -29.48158539 162.5178775 -29.4884491 161.61286926 C-29.54859477 153.32926699 -29.59425372 145.04573821 -29.62369823 136.76196766 C-29.63934494 132.50332628 -29.6605649 128.24486555 -29.69458008 123.98632812 C-29.72720924 119.87552302 -29.74512222 115.76489153 -29.75289345 111.6539669 C-29.75843059 110.08668981 -29.76924337 108.51942207 -29.78545189 106.95221901 C-29.807274 104.75455928 -29.81022673 102.55761417 -29.80883789 100.35986328 C-29.81883064 98.48455681 -29.81883064 98.48455681 -29.82902527 96.57136536 C-29.43582678 92.97826325 -28.66488485 91.11847521 -26.46826172 88.2746582 C-23.09709183 86.58907326 -21.38069009 86.0258141 -17.71826172 87.0246582 C-15.46826172 88.2746582 -15.46826172 88.2746582 -13.46826172 90.2746582 C-13.22775269 93.32449341 -13.22775269 93.32449341 -13.24121094 97.29467773 C-13.24091888 98.01673401 -13.24062683 98.73879028 -13.24032593 99.48272705 C-13.24172163 101.87442962 -13.25729389 104.26582241 -13.27294922 106.6574707 C-13.2766785 108.3137088 -13.27952587 109.9699491 -13.28152466 111.62619019 C-13.28916783 115.98938061 -13.30882212 120.35243827 -13.33093262 124.71557617 C-13.35496958 129.94849402 -13.36416878 135.18145622 -13.37583923 140.41441345 C-13.39524619 148.36792075 -13.43356385 156.32113666 -13.46826172 164.2746582 C2.04173828 164.2746582 17.55173828 164.2746582 33.53173828 164.2746582 C33.33420529 154.91015863 33.33420529 154.91015863 33.08129883 145.54711914 C33.06881104 144.37955078 33.05632324 143.21198242 33.04345703 142.0090332 C33.01727295 140.81503906 32.99108887 139.62104492 32.96411133 138.39086914 C33.53173828 135.2746582 33.53173828 135.2746582 35.83569336 132.84985352 C38.53173828 131.2746582 38.53173828 131.2746582 42.15673828 131.3371582 C46.75901101 132.61556729 46.75901101 132.61556729 48.53173828 135.2746582 C50.87764279 144.65827625 49.53173828 154.60224612 49.53173828 164.2746582 C66.36173828 164.2746582 83.19173828 164.2746582 100.53173828 164.2746582 C100.46888284 145.97678064 100.39372343 127.67908939 100.29602337 109.38136768 C100.25105542 100.88544263 100.21164308 92.38955959 100.18530273 83.89355469 C100.16233072 76.48853952 100.12894168 69.08365719 100.08303672 61.67874736 C100.05909365 57.75778937 100.04037202 53.83696304 100.03412437 49.91593361 C100.02807835 46.22473526 100.00809635 42.5338738 99.97746277 38.84280014 C99.96448687 36.84350757 99.9662538 34.84413632 99.96846008 32.84480286 C99.95592194 31.65153381 99.94338379 30.45826477 99.9304657 29.22883606 C99.92355225 27.67607578 99.92355225 27.67607578 99.91649914 26.0919466 C99.46988078 22.82172646 98.46835711 20.92571388 96.53173828 18.2746582 C94.24991624 17.13374718 92.98124235 17.14433783 90.4458313 17.13421631 C89.5906189 17.12850616 88.73540649 17.12279602 87.85427856 17.11691284 C86.91397797 17.11579498 85.97367737 17.11467712 85.00488281 17.11352539 C83.52178619 17.10607803 83.52178619 17.10607803 82.00872803 17.09848022 C78.72732862 17.08383637 75.44597754 17.07705308 72.16455078 17.0715332 C69.89012653 17.06578382 67.61570229 17.06002606 65.34127808 17.05426025 C60.5680112 17.04374409 55.79476121 17.03790537 51.02148438 17.03442383 C44.89892071 17.0289362 38.77657912 17.00490488 32.65408516 16.97645187 C27.95469507 16.95784804 23.25535872 16.95262111 18.55593491 16.95108795 C16.29844828 16.94805607 14.04096272 16.94000961 11.78351212 16.92690277 C8.62796272 16.90988873 5.4729592 16.91171124 2.31738281 16.91821289 C1.38113068 16.90899811 0.44487854 16.89978333 -0.51974487 16.89028931 C-5.460767 16.90304727 -5.460767 16.90304727 -10.0173645 18.60943604 C-13.37924568 22.46793062 -12.62035657 27.35972767 -12.64404297 32.17700195 C-12.66723536 33.97193563 -12.69135245 35.76685756 -12.71630859 37.56176758 C-12.7514624 40.390543 -12.78079357 43.21888396 -12.79418945 46.04785156 C-12.80965156 48.77893474 -12.84984073 51.5087526 -12.89404297 54.23950195 C-12.89213455 55.08439682 -12.89022614 55.92929169 -12.88825989 56.79978943 C-13.01060777 62.66714571 -13.01060777 62.66714571 -15.37695312 65.80834961 C-18.91729696 68.29064066 -21.22050373 67.74663131 -25.46826172 67.2746582 C-28.14257661 65.46302553 -28.42746531 64.39704743 -29.46826172 61.2746582 C-29.57761716 58.41873512 -29.63231837 55.58799602 -29.63623047 52.73168945 C-29.63955887 51.88926193 -29.64288727 51.04683441 -29.64631653 50.17887878 C-29.65137987 48.39432317 -29.65372504 46.6097581 -29.65356445 44.82519531 C-29.65573951 42.11482779 -29.67386966 39.40487497 -29.69287109 36.69458008 C-29.69580755 34.95695125 -29.69779066 33.2193205 -29.69873047 31.48168945 C-29.70591599 30.67931351 -29.7131015 29.87693756 -29.72050476 29.05024719 C-29.68589756 20.38309813 -28.16386798 13.0502383 -21.86279297 6.6418457 C-15.14506684 0.50246686 -8.81531128 -0.0223822 0 0 Z " fill="#000000" transform="translate(44.46826171875,332.725341796875)"/>
<path d="M0 0 C22.82619875 -0.57484656 46.0198616 5.86063496 63.09765625 21.53125 C65.0315794 23.37338301 66.90766508 25.25472267 68.78515625 27.15625 C69.59855469 27.9709375 70.41195312 28.785625 71.25 29.625 C87.51397738 46.75082917 94.85967751 68.78318974 94.78515625 92.15625 C93.84665089 118.00078678 82.72259543 140.57248076 64.02734375 158.328125 C46.24896671 174.37547818 22.50210451 181.20050816 -1.12353516 180.29248047 C-22.2745999 178.91467354 -41.48629714 170.2612047 -57.21484375 156.15625 C-57.8490625 155.60453125 -58.48328125 155.0528125 -59.13671875 154.484375 C-75.0714634 139.71915289 -84.58354958 116.91505349 -85.4375 95.48046875 C-86.07971771 69.64240723 -78.37211597 46.36751642 -60.57006836 27.421875 C-44.41405154 10.95319678 -23.12029479 1.12370813 0 0 Z M-51.02734375 40.90625 C-65.08917552 57.44502829 -70.76880787 77.65900427 -69.21484375 99.15625 C-66.81584745 118.2957833 -56.48952651 135.51414567 -42.02734375 147.9921875 C-26.70791766 159.7796348 -8.54124708 165.31037832 10.78515625 164.15625 C29.38666625 161.69798593 44.44884889 154.22934077 57.78515625 141.15625 C58.48640625 140.49109375 59.18765625 139.8259375 59.91015625 139.140625 C72.68933245 126.06193686 78.76989967 106.43640745 78.7890625 88.5 C77.83650421 70.9262715 71.73825873 54.28172501 59.78515625 41.15625 C59.10839844 40.39957031 58.43164062 39.64289063 57.734375 38.86328125 C52.36640481 33.17113524 46.56043266 29.03073441 39.78515625 25.15625 C38.80289063 24.57230469 38.80289063 24.57230469 37.80078125 23.9765625 C7.71857163 7.39278027 -28.3360643 17.3243572 -51.02734375 40.90625 Z " fill="#000000" transform="translate(250.21484375,165.84375)"/>
<path d="M0 0 C9.69242413 6.95288386 16.11995831 16.46391612 18.3125 28.3125 C19.2452912 43.56004853 16.29126991 55.01219891 6.4375 66.9375 C5.385625 68.113125 5.385625 68.113125 4.3125 69.3125 C5.05113281 69.69019531 5.78976563 70.06789063 6.55078125 70.45703125 C21.85078651 78.75830475 33.17592038 91.75611807 38.5703125 108.48828125 C41.14918911 118.30158541 41.52155775 127.96505824 41.625 138.0625 C41.64272461 139.1158252 41.66044922 140.16915039 41.67871094 141.25439453 C41.67023369 150.23886848 40.64308634 159.0909727 34.13110352 165.79052734 C26.11170388 172.50188958 17.70860798 173.08041305 7.67871094 172.90942383 C5.41998238 172.87473094 3.16509769 172.88890717 0.90625 172.90820312 C-0.53907907 172.90131299 -1.98439817 172.89164815 -3.4296875 172.87890625 C-4.7276123 172.86802979 -6.02553711 172.85715332 -7.36279297 172.84594727 C-11.19029107 172.23182747 -12.37905266 171.36204481 -14.6875 168.3125 C-15.25390625 166.3125 -15.25390625 166.3125 -15.25 164.3125 C-15.27191406 163.6525 -15.29382813 162.9925 -15.31640625 162.3125 C-14.32397491 159.15644506 -12.4025659 158.10842215 -9.6875 156.3125 C-6.52124023 155.83007812 -6.52124023 155.83007812 -2.99609375 155.84375 C-1.72185547 155.82957031 -0.44761719 155.81539062 0.86523438 155.80078125 C2.20182762 155.80241703 3.53841992 155.80634587 4.875 155.8125 C7.5027699 155.8245671 10.1257663 155.81052548 12.75390625 155.78125 C14.49716187 155.78801758 14.49716187 155.78801758 16.27563477 155.79492188 C19.94770475 155.21159441 21.07957214 154.22860021 23.3125 151.3125 C27.61691887 138.39924338 25.00900261 119.20119654 19.25 107.1875 C12.68481283 94.50483063 3.0639415 86.34799718 -10.3125 81.375 C-24.58110487 77.69277939 -38.88152371 80.11413159 -51.4375 87.5 C-62.78137526 95.20404191 -69.38695515 106.08557504 -72.6875 119.3125 C-73.05635768 123.97033566 -73.05914896 128.62258907 -73.05810547 133.29272461 C-73.06251027 135.50516002 -73.09898905 137.71564672 -73.13671875 139.92773438 C-73.14258238 141.34113907 -73.14655481 142.75455315 -73.1484375 144.16796875 C-73.16076416 146.08065552 -73.16076416 146.08065552 -73.17333984 148.03198242 C-72.92403025 151.33290946 -72.92403025 151.33290946 -71.06860352 153.72973633 C-67.93096095 155.81538554 -65.8818018 155.7958193 -62.12890625 155.78125 C-60.85595703 155.79542969 -59.58300781 155.80960938 -58.27148438 155.82421875 C-56.25931935 155.82176399 -54.24725117 155.81248734 -52.23510742 155.80322266 C-50.28299508 155.80083358 -48.3308992 155.82202828 -46.37890625 155.84375 C-45.21560791 155.83923828 -44.05230957 155.83472656 -42.85375977 155.83007812 C-39.04087287 156.41102226 -37.40477022 157.62709575 -34.6875 160.3125 C-33.22453523 163.78704134 -33.57474881 165.03330658 -35 168.5625 C-36.6875 171.3125 -36.6875 171.3125 -38.6875 172.3125 C-43.25055303 172.59661191 -47.81747586 172.62642307 -52.38818359 172.66259766 C-53.90689538 172.6790458 -55.4255334 172.70618641 -56.94384766 172.74462891 C-65.95518599 172.97134164 -74.17859988 173.05521418 -81.6875 167.3125 C-84.01709048 164.79803077 -85.94962478 162.26571363 -87.6875 159.3125 C-88.20896606 158.51791382 -88.20896606 158.51791382 -88.7409668 157.70727539 C-90.12590841 154.20330524 -89.99266015 150.74474869 -89.98828125 147.03125 C-89.99256638 146.22192017 -89.9968515 145.41259033 -90.00126648 144.57873535 C-90.00700485 142.86402316 -90.00751366 141.14928662 -90.00317383 139.43457031 C-90.00004438 136.84916815 -90.02337099 134.2649457 -90.04882812 131.6796875 C-90.12577327 112.42898793 -85.31120411 96.52648332 -71.91186523 82.32836914 C-67.59579738 77.98086815 -62.82501344 74.60014229 -57.6875 71.3125 C-56.34568262 70.32391318 -55.0095469 69.32737427 -53.6875 68.3125 C-54.46673828 67.54679687 -54.46673828 67.54679687 -55.26171875 66.765625 C-64.59957879 57.03077646 -68.11135317 46.16725549 -67.9609375 32.85546875 C-67.02206578 20.69037378 -61.68530856 10.8355143 -52.9375 2.5 C-37.75539648 -10.04302693 -16.31856565 -9.92943232 0 0 Z M-46.4375 19.30078125 C-51.11340914 26.82607253 -52.92092526 33.8810683 -51.25 42.59375 C-49.32143507 49.633012 -45.39646828 54.80459024 -39.359375 58.88671875 C-32.74273418 62.51754838 -26.37714417 64.31601826 -18.89453125 62.71484375 C-11.61881186 60.39664902 -5.49082416 56.74566379 -1.34375 50.1875 C2.3457711 43.01928757 3.82217255 35.78182797 1.62890625 27.8359375 C-1.74007475 19.70005807 -6.69171881 13.86631045 -14.78125 10.19921875 C-26.55153703 6.60801558 -38.8415986 9.35273993 -46.4375 19.30078125 Z " fill="#000000" transform="translate(112.6875,6.6875)"/>
<path d="M0 0 C5.67429422 3.40934485 10.05052626 8.11038422 12.5 14.3125 C14.25492959 21.40384815 13.64576934 27.73425362 10.5 34.3125 C3.37263532 43.69898978 -5.82450639 51.89121554 -14.12036133 60.22802734 C-15.75471961 61.87398609 -17.38458009 63.52442263 -19.01000977 65.17919922 C-21.38362265 67.59550899 -23.77023843 69.99826602 -26.16015625 72.3984375 C-26.87808853 73.13387787 -27.59602081 73.86931824 -28.33570862 74.62704468 C-33.59626618 79.86533301 -38.59056298 83.72951378 -46.0625 84.84375 C-47.196875 84.8334375 -48.33125 84.823125 -49.5 84.8125 C-51.2015625 84.82796875 -51.2015625 84.82796875 -52.9375 84.84375 C-60.68919642 83.68779527 -65.95904052 79.45104917 -71.30078125 73.97265625 C-71.90383591 73.36868515 -72.50689056 72.76471405 -73.1282196 72.1424408 C-74.39079355 70.87386673 -75.64854643 69.60047749 -76.90161133 68.32250977 C-78.81424458 66.37322199 -80.74254427 64.44055924 -82.67382812 62.50976562 C-83.90459543 61.26917052 -85.13444565 60.02766477 -86.36328125 58.78515625 C-86.93516678 58.21104507 -87.50705231 57.6369339 -88.0962677 57.04542542 C-93.80489011 51.20053387 -96.60855822 46.31327023 -96.75 38.0625 C-96.64340196 30.77507033 -95.23618316 25.85026379 -90.1875 20.5 C-83.94582257 14.8033339 -77.87406975 13.1492173 -69.5 13.3125 C-63.05190664 14.2869707 -58.87399234 17.24479128 -54.2265625 21.69140625 C-52.39033949 23.50487533 -52.39033949 23.50487533 -49.5 25.3125 C-48.88592285 24.67223877 -48.2718457 24.03197754 -47.63916016 23.37231445 C-45.3198067 20.96693803 -42.9890007 18.57386522 -40.64990234 16.18774414 C-39.64649731 15.15943873 -38.64765236 14.12666048 -37.65380859 13.08911133 C-27.48547215 2.48557418 -15.33940072 -7.06191279 0 0 Z M-29.7890625 28.78515625 C-30.66820312 29.70361328 -31.54734375 30.62207031 -32.453125 31.56835938 C-34.25569159 33.46184489 -36.04452502 35.36848682 -37.8203125 37.28710938 C-45.20700355 44.92907578 -45.20700355 44.92907578 -49.89453125 45.125 C-53.46410552 44.3205889 -55.01949468 43.79300532 -57.5625 41.25 C-58.21992188 40.61707031 -58.87734375 39.98414063 -59.5546875 39.33203125 C-60.83634235 38.00147792 -62.11254228 36.66564519 -63.3828125 35.32421875 C-66.82694523 31.66653153 -66.82694523 31.66653153 -71.125 29.1875 C-74.31578758 29.35543619 -75.97090832 30.39859278 -78.5 32.3125 C-80.80937103 35.16776009 -80.80937103 35.16776009 -80.47119141 38.60180664 C-79.29883936 43.08108736 -77.17197642 45.52596367 -73.9609375 48.68359375 C-73.40185699 49.25078629 -72.84277649 49.81797882 -72.26675415 50.40235901 C-71.08552533 51.59201945 -69.89664891 52.77412974 -68.70068359 53.94897461 C-66.87822368 55.74681986 -65.09313063 57.57670508 -63.30859375 59.41210938 C-62.15313287 60.56719983 -60.99564518 61.72026713 -59.8359375 62.87109375 C-59.30648529 63.41785263 -58.77703308 63.96461151 -58.23153687 64.52793884 C-55.60330658 67.06036664 -53.67644635 68.27209873 -50.10400391 69.09008789 C-44.86212558 67.95911767 -42.21249387 65.03926697 -38.5 61.3125 C-37.82695831 60.66899597 -37.15391663 60.02549194 -36.46047974 59.36248779 C-34.31870439 57.31142836 -32.20532127 55.23451329 -30.09765625 53.1484375 C-29.33448593 52.39333893 -28.57131561 51.63824036 -27.78501892 50.86026001 C-26.18782613 49.27679491 -24.59210426 47.69184486 -22.99780273 46.10546875 C-21.36616012 44.48543983 -19.73003656 42.86991225 -18.08959961 41.25878906 C-15.70749827 38.91916169 -13.33874624 36.56674295 -10.97265625 34.2109375 C-10.2373317 33.49312103 -9.50200714 32.77530457 -8.74440002 32.03573608 C-8.06957077 31.35798126 -7.39474152 30.68022644 -6.69946289 29.98193359 C-6.1040419 29.39237885 -5.50862091 28.8028241 -4.89515686 28.19540405 C-3.18210894 25.88347414 -2.75497786 24.16474691 -2.5 21.3125 C-3.88557787 18.47536436 -5.27001704 16.54248296 -7.5 14.3125 C-17.09287319 12.11413323 -23.79603487 22.50999293 -29.7890625 28.78515625 Z " fill="#000000" transform="translate(296.5,218.6875)"/>
<path d="M0 0 C8.52850467 6.3963785 13.08054673 14.48280026 14.8125 24.9375 C15.95331944 35.09447311 12.87163936 43.88027186 6.8125 51.9375 C-0.39589002 59.94529083 -8.82696866 64.29224725 -19.6171875 64.96875 C-30.36142021 64.83812103 -38.69368184 61.45602573 -46.5 54.125 C-53.795275 46.39461913 -56.70777957 37.04367987 -56.43359375 26.51171875 C-55.55416317 17.31259567 -51.8016405 9.26588317 -45.04296875 2.92578125 C-31.64522489 -7.96131214 -14.71808332 -9.42668781 0 0 Z M-36.1875 16.9375 C-39.25293714 22.09665074 -41.06871262 26.87916326 -40.1875 32.9375 C-38.18449326 39.00578078 -34.73088422 43.6897539 -29.1875 46.9375 C-23.3711351 49.20048966 -18.12556932 49.50887074 -12.296875 47.18359375 C-7.3961487 44.28853507 -4.24164688 40.00187097 -1.6875 35 C-0.55612367 28.07031995 -1.67289471 22.47698215 -5.65625 16.6640625 C-9.48532258 12.34658781 -14.73169195 10.12640831 -20.4375 9.6875 C-26.6470652 10.10147101 -31.84352345 12.47611868 -36.1875 16.9375 Z " fill="#000000" transform="translate(442.1875,60.0625)"/>
<path d="M0 0 C8.47892333 1.99504078 15.67574543 12.08717127 21.625 18.0625 C22.53443359 18.96806641 23.44386719 19.87363281 24.38085938 20.80664062 C25.24388672 21.67095703 26.10691406 22.53527344 26.99609375 23.42578125 C28.16869751 24.6000769 28.16869751 24.6000769 29.36499023 25.7980957 C31.91871527 28.53313009 32.87048239 30.85590857 32.75390625 34.6640625 C31.56433937 39.04495018 27.98701913 41.96752815 24.84521484 45.08496094 C22.87972018 47.05913968 20.96757789 49.08008696 19.05078125 51.1015625 C17.55618886 52.6524899 16.06008402 54.20196114 14.5625 55.75 C13.84650635 56.50458496 13.1305127 57.25916992 12.39282227 58.03662109 C8.1957737 62.29603797 5.20682972 64.95332401 -0.8125 65.75 C-6.33522727 63.70454545 -6.33522727 63.70454545 -7.8125 60.75 C-8.42520237 57.80902862 -8.6341547 56.5693027 -7.8125 53.75 C-5.11372633 50.1099202 -2.03308068 46.92988742 1.1875 43.75 C2.1775 42.76 2.1775 42.76 3.1875 41.75 C2.28183289 41.74413376 1.37616577 41.73826752 0.4430542 41.73222351 C-8.09123821 41.67432433 -16.62526813 41.60226359 -25.15930557 41.51428509 C-29.54677749 41.46955388 -33.93415596 41.43030393 -38.32177734 41.40356445 C-42.55594679 41.37755875 -46.78975717 41.33717604 -51.02370453 41.28681374 C-52.6391834 41.27012646 -54.2547244 41.25862376 -55.8702774 41.25238609 C-58.13297687 41.24276496 -60.39475388 41.21473131 -62.65722656 41.18237305 C-63.94518127 41.17126999 -65.23313599 41.16016693 -66.56011963 41.14872742 C-70.01178817 40.72556815 -71.42577183 40.2381179 -73.8125 37.75 C-74.8125 34.375 -74.8125 34.375 -74.8125 30.75 C-73.04608828 27.94810554 -71.78200178 26.23475089 -68.8125 24.75 C-66.53588355 24.62887902 -64.25574083 24.57247855 -61.97607422 24.54467773 C-60.92225052 24.52982834 -60.92225052 24.52982834 -59.84713745 24.51467896 C-57.52052197 24.4830432 -55.19388606 24.45829841 -52.8671875 24.43359375 C-51.25578271 24.41302601 -49.64438334 24.39202958 -48.0329895 24.37062073 C-43.78827294 24.31538146 -39.54350753 24.26598039 -35.29870605 24.21777344 C-30.96862432 24.16757194 -26.63861365 24.11187883 -22.30859375 24.05664062 C-13.80995589 23.94903637 -5.31125865 23.84759646 3.1875 23.75 C2.47722656 23.05132812 1.76695312 22.35265625 1.03515625 21.6328125 C0.11605469 20.72273438 -0.80304688 19.81265625 -1.75 18.875 C-2.66652344 17.97007813 -3.58304687 17.06515625 -4.52734375 16.1328125 C-7.08489068 13.4659687 -7.70471352 12.55839864 -8.1875 8.9375 C-7.8125 5.75 -7.8125 5.75 -5.6875 2.875 C-2.8125 0.75 -2.8125 0.75 0 0 Z " fill="#000000" transform="translate(275.8125,56.25)"/>
<path d="M0 0 C3.11728493 0.63039714 4.15485224 1.93812098 6.10546875 4.42578125 C6.62445068 7.71612549 6.62445068 7.71612549 6.65136719 11.67285156 C6.66170486 12.39519989 6.67204254 13.11754822 6.68269348 13.86178589 C6.71212537 16.24272011 6.71362065 18.6228044 6.71484375 21.00390625 C6.72982524 22.6573041 6.74655232 24.31068697 6.76495361 25.96405029 C6.80864333 30.31071662 6.82862968 34.65718107 6.84368896 39.00402832 C6.8632543 43.44160914 6.90522492 47.87897176 6.9453125 52.31640625 C7.02063213 61.01947418 7.07091281 69.72245647 7.10546875 78.42578125 C7.81832031 77.64332031 8.53117187 76.86085938 9.265625 76.0546875 C10.23224023 75.03176459 11.19973531 74.0096726 12.16796875 72.98828125 C12.63396484 72.47201172 13.09996094 71.95574219 13.58007812 71.42382812 C16.25475326 68.63998257 18.02897184 67.44537093 21.796875 66.48046875 C25.10546875 66.42578125 25.10546875 66.42578125 27.98046875 67.98828125 C30.55794943 70.9448032 31.10546875 72.51546013 31.10546875 76.42578125 C28.99759568 80.67619197 25.97687682 83.83259277 22.6328125 87.12890625 C22.10909561 87.65216492 21.58537872 88.17542358 21.04579163 88.71453857 C19.94459949 89.81272431 18.84099267 90.90849355 17.73510742 92.00195312 C16.03957568 93.6791376 14.35227362 95.36427813 12.66601562 97.05078125 C11.59292016 98.11896421 10.51936831 99.18668892 9.4453125 100.25390625 C8.94007553 100.7580304 8.43483856 101.26215454 7.91429138 101.78155518 C4.58029252 105.07036167 3.13119733 106.31067118 -1.60375977 106.84204102 C-5.88737851 106.77452211 -7.86849544 105.40640543 -10.89183044 102.48875427 C-11.7110775 101.63580528 -11.7110775 101.63580528 -12.546875 100.765625 C-13.13247696 100.1829335 -13.71807892 99.600242 -14.32142639 98.99989319 C-15.55025129 97.76776011 -16.7692451 96.52575246 -17.97875977 95.2746582 C-19.82682721 93.36864845 -21.70941053 91.5028058 -23.59960938 89.63867188 C-24.79260369 88.43320141 -25.98343571 87.22558638 -27.171875 86.015625 C-28.01237648 85.18393044 -28.01237648 85.18393044 -28.86985779 84.33543396 C-32.47844135 80.54897914 -33.72808044 77.84095364 -33.89453125 72.42578125 C-33.10724041 69.77762114 -32.37173016 68.79693596 -30.20703125 67.11328125 C-26.77361215 66.09253503 -24.37048371 66.61742021 -20.89453125 67.42578125 C-18.0234375 69.7109375 -18.0234375 69.7109375 -15.45703125 72.48828125 C-14.15958984 73.86693359 -14.15958984 73.86693359 -12.8359375 75.2734375 C-12.19527344 75.98371094 -11.55460937 76.69398438 -10.89453125 77.42578125 C-10.88866501 76.5473909 -10.88279877 75.66900055 -10.87675476 74.76399231 C-10.81881665 66.48018141 -10.74673348 58.19663983 -10.65881634 49.91309071 C-10.61411608 45.6545635 -10.5748593 41.39613188 -10.5480957 37.13745117 C-10.52205912 33.02646549 -10.48165449 28.91584773 -10.43134499 24.80508995 C-10.41467861 23.23788725 -10.40316289 21.67062092 -10.39691734 20.10334206 C-10.38727344 17.90549915 -10.35921271 15.70859696 -10.3269043 13.51098633 C-10.31580124 12.26078201 -10.30469818 11.0105777 -10.29325867 9.7224884 C-9.41250359 2.44034168 -6.89001239 0.37487872 0 0 Z " fill="#000000" transform="translate(422.89453125,202.57421875)"/>
<path d="M0 0 C2.42520546 2.42520546 2.68564441 3.62067741 3 7 C1.70356391 11.56040461 -0.74710559 14.06452461 -4.125 17.3125 C-5.03507812 18.19550781 -5.94515625 19.07851563 -6.8828125 19.98828125 C-7.58148438 20.65214844 -8.28015625 21.31601562 -9 22 C-8.08180481 22.00364563 -7.16360962 22.00729126 -6.21759033 22.01104736 C2.43447347 22.04890993 11.08615965 22.1057428 19.737957 22.18390274 C24.18599679 22.22341651 28.63383746 22.2555857 33.08203125 22.27099609 C37.37462525 22.28613722 41.66667197 22.32053683 45.95902252 22.36830902 C47.59682713 22.38314922 49.23470986 22.39104253 50.87258148 22.39188385 C53.16662479 22.39424746 55.45914813 22.42127478 57.75292969 22.45410156 C59.71150909 22.46742523 59.71150909 22.46742523 61.70965576 22.48101807 C65 23 65 23 67.42559814 24.81536865 C69.71158578 27.98739251 69.47676512 30.18587903 69 34 C67.23984869 37.1850357 66.50109084 37.83296972 63 39 C60.71598294 39.11824282 58.4287459 39.17698899 56.1418457 39.20532227 C55.10243332 39.22017166 55.10243332 39.22017166 54.04202271 39.23532104 C51.75331022 39.2668896 49.46457699 39.29167503 47.17578125 39.31640625 C45.58822594 39.33697979 44.00067606 39.35797637 42.41313171 39.37937927 C38.23583372 39.43455861 34.05848663 39.48398612 29.88110352 39.53222656 C25.61795688 39.5824718 21.3548815 39.63814209 17.09179688 39.69335938 C8.72792484 39.80089034 0.36399317 39.90234653 -8 40 C-7.37351563 40.58007812 -6.74703125 41.16015625 -6.1015625 41.7578125 C-5.28429687 42.53898437 -4.46703125 43.32015625 -3.625 44.125 C-2.40683594 45.27355469 -2.40683594 45.27355469 -1.1640625 46.4453125 C1.21958117 49.25921675 2.1617568 51.4277194 3 55 C2.29840878 58.01684226 1.37484621 59.58350421 -0.6875 61.875 C-4.16869956 63.56855654 -6.27398577 62.92268502 -10 62 C-12.48159542 60.35247023 -14.48249204 58.33666678 -16.5546875 56.20703125 C-17.14170441 55.62338303 -17.72872131 55.0397348 -18.33352661 54.43840027 C-19.56592624 53.20570273 -20.79091357 51.96555491 -22.00878906 50.71850586 C-23.87114194 48.81644033 -25.76110997 46.9455093 -27.65625 45.07617188 C-28.85332382 43.87153938 -30.04869658 42.66521361 -31.2421875 41.45703125 C-31.80565887 40.90054398 -32.36913025 40.3440567 -32.94967651 39.77070618 C-36.2204351 36.38002508 -38.08047687 33.94269 -38 29 C-36.09349726 24.603345 -32.73046494 21.42379594 -29.37890625 18.078125 C-28.83773666 17.53267029 -28.29656708 16.98721558 -27.73899841 16.42523193 C-26.59929547 15.27981112 -25.45699678 14.13696787 -24.31225586 12.99658203 C-22.5627505 11.25025005 -20.82702561 9.49097376 -19.09179688 7.73046875 C-17.97997763 6.6163776 -16.86737385 5.50306872 -15.75390625 4.390625 C-15.23711807 3.86462708 -14.7203299 3.33862915 -14.18788147 2.79669189 C-9.11897398 -2.20785066 -6.56655396 -2.71227229 0 0 Z " fill="#000000" transform="translate(239,392)"/>
<path d="M0 0 C1.01317291 -0.01073296 1.01317291 -0.01073296 2.04681396 -0.02168274 C4.26888668 -0.0385257 6.48892895 -0.01919687 8.7109375 0.00219727 C10.26123216 0.00136814 11.81152673 -0.00109288 13.36181641 -0.00511169 C16.60671535 -0.00796664 19.85092288 0.00670062 23.09570312 0.03417969 C27.24877482 0.06826296 31.40061059 0.06224195 35.55374146 0.04351711 C38.75376634 0.03293318 41.95350512 0.04189738 45.15350342 0.05690193 C46.68445994 0.06207405 48.21544645 0.06161372 49.74639893 0.05535698 C51.88887452 0.04988748 54.02959914 0.07033081 56.171875 0.09765625 C57.3892334 0.10385483 58.6065918 0.11005341 59.86083984 0.11643982 C63.68630699 0.72691097 65.36184633 1.92707375 68.0859375 4.63110352 C68.71484375 6.63110352 68.71484375 6.63110352 68.6484375 8.63110352 C68.64972656 9.29110352 68.65101563 9.95110352 68.65234375 10.63110352 C67.81624682 13.58339061 66.48182508 14.72868744 64.0859375 16.63110352 C60.8984375 17.13903809 60.8984375 17.13903809 57.0859375 17.14868164 C56.38952148 17.15569092 55.69310547 17.1627002 54.97558594 17.16992188 C52.67862818 17.18749547 50.38290729 17.17588271 48.0859375 17.16235352 C46.48697677 17.16504865 44.88801763 17.16893124 43.2890625 17.1739502 C39.93994524 17.17984433 36.59125507 17.17128544 33.2421875 17.15258789 C28.95115159 17.12979787 24.66111639 17.14292148 20.37011719 17.16687775 C17.06893384 17.18133831 13.76798739 17.17672867 10.46679688 17.16636658 C8.88476442 17.16369998 7.30271039 17.16696674 5.72070312 17.17628479 C3.50853587 17.1864553 1.2979845 17.17094542 -0.9140625 17.14868164 C-2.1721875 17.14549927 -3.4303125 17.14231689 -4.7265625 17.13903809 C-8.49222932 16.53897146 -9.68387122 15.67767976 -11.9140625 12.63110352 C-12.4765625 9.19360352 -12.4765625 9.19360352 -11.9140625 5.63110352 C-8.25189911 0.95861944 -5.86604863 0.00463441 0 0 Z " fill="#000000" transform="translate(59.9140625,430.368896484375)"/>
<path d="M0 0 C1.01317291 -0.01073296 1.01317291 -0.01073296 2.04681396 -0.02168274 C4.26888668 -0.0385257 6.48892895 -0.01919687 8.7109375 0.00219727 C10.26123216 0.00136814 11.81152673 -0.00109288 13.36181641 -0.00511169 C16.60671535 -0.00796664 19.85092288 0.00670062 23.09570312 0.03417969 C27.24877482 0.06826296 31.40061059 0.06224195 35.55374146 0.04351711 C38.75376634 0.03293318 41.95350512 0.04189738 45.15350342 0.05690193 C46.68445994 0.06207405 48.21544645 0.06161372 49.74639893 0.05535698 C51.88887452 0.04988748 54.02959914 0.07033081 56.171875 0.09765625 C57.3892334 0.10385483 58.6065918 0.11005341 59.86083984 0.11643982 C63.68630699 0.72691097 65.36184633 1.92707375 68.0859375 4.63110352 C68.71484375 6.63110352 68.71484375 6.63110352 68.6484375 8.63110352 C68.64972656 9.29110352 68.65101563 9.95110352 68.65234375 10.63110352 C67.81624682 13.58339061 66.48182508 14.72868744 64.0859375 16.63110352 C60.8984375 17.13903809 60.8984375 17.13903809 57.0859375 17.14868164 C56.38952148 17.15569092 55.69310547 17.1627002 54.97558594 17.16992188 C52.67862818 17.18749547 50.38290729 17.17588271 48.0859375 17.16235352 C46.48697677 17.16504865 44.88801763 17.16893124 43.2890625 17.1739502 C39.93994524 17.17984433 36.59125507 17.17128544 33.2421875 17.15258789 C28.95115159 17.12979787 24.66111639 17.14292148 20.37011719 17.16687775 C17.06893384 17.18133831 13.76798739 17.17672867 10.46679688 17.16636658 C8.88476442 17.16369998 7.30271039 17.16696674 5.72070312 17.17628479 C3.50853587 17.1864553 1.2979845 17.17094542 -0.9140625 17.14868164 C-2.1721875 17.14549927 -3.4303125 17.14231689 -4.7265625 17.13903809 C-8.49222932 16.53897146 -9.68387122 15.67767976 -11.9140625 12.63110352 C-12.4765625 9.19360352 -12.4765625 9.19360352 -11.9140625 5.63110352 C-8.25189911 0.95861944 -5.86604863 0.00463441 0 0 Z " fill="#000000" transform="translate(59.9140625,397.368896484375)"/>
<path d="M0 0 C1.01317291 -0.01073296 1.01317291 -0.01073296 2.04681396 -0.02168274 C4.26888668 -0.0385257 6.48892895 -0.01919687 8.7109375 0.00219727 C10.26123216 0.00136814 11.81152673 -0.00109288 13.36181641 -0.00511169 C16.60671535 -0.00796664 19.85092288 0.00670062 23.09570312 0.03417969 C27.24877482 0.06826296 31.40061059 0.06224195 35.55374146 0.04351711 C38.75376634 0.03293318 41.95350512 0.04189738 45.15350342 0.05690193 C46.68445994 0.06207405 48.21544645 0.06161372 49.74639893 0.05535698 C51.88887452 0.04988748 54.02959914 0.07033081 56.171875 0.09765625 C57.3892334 0.10385483 58.6065918 0.11005341 59.86083984 0.11643982 C63.68630699 0.72691097 65.36184633 1.92707375 68.0859375 4.63110352 C68.71484375 6.63110352 68.71484375 6.63110352 68.6484375 8.63110352 C68.64972656 9.29110352 68.65101563 9.95110352 68.65234375 10.63110352 C67.81624682 13.58339061 66.48182508 14.72868744 64.0859375 16.63110352 C60.8984375 17.13903809 60.8984375 17.13903809 57.0859375 17.14868164 C56.38952148 17.15569092 55.69310547 17.1627002 54.97558594 17.16992188 C52.67862818 17.18749547 50.38290729 17.17588271 48.0859375 17.16235352 C46.48697677 17.16504865 44.88801763 17.16893124 43.2890625 17.1739502 C39.93994524 17.17984433 36.59125507 17.17128544 33.2421875 17.15258789 C28.95115159 17.12979787 24.66111639 17.14292148 20.37011719 17.16687775 C17.06893384 17.18133831 13.76798739 17.17672867 10.46679688 17.16636658 C8.88476442 17.16369998 7.30271039 17.16696674 5.72070312 17.17628479 C3.50853587 17.1864553 1.2979845 17.17094542 -0.9140625 17.14868164 C-2.1721875 17.14549927 -3.4303125 17.14231689 -4.7265625 17.13903809 C-8.49222932 16.53897146 -9.68387122 15.67767976 -11.9140625 12.63110352 C-12.4765625 9.19360352 -12.4765625 9.19360352 -11.9140625 5.63110352 C-8.25189911 0.95861944 -5.86604863 0.00463441 0 0 Z " fill="#000000" transform="translate(59.9140625,364.368896484375)"/>
<path d="M0 0 C0.84954254 -0.00807175 1.69908508 -0.01614349 2.57437134 -0.02445984 C4.37150033 -0.03828423 6.16865539 -0.04901374 7.96582031 -0.05688477 C10.70949096 -0.07411156 13.45196058 -0.11801275 16.1953125 -0.16210938 C17.94269949 -0.17223564 19.6900967 -0.18075195 21.4375 -0.1875 C22.2553598 -0.20500809 23.0732196 -0.22251617 23.91586304 -0.24055481 C27.93404759 -0.22530279 29.88462446 -0.05594902 33.36938477 2.13989258 C35.3515625 4.23828125 35.3515625 4.23828125 35.98046875 6.23828125 C35.95855469 6.89828125 35.93664062 7.55828125 35.9140625 8.23828125 C35.91599609 9.22828125 35.91599609 9.22828125 35.91796875 10.23828125 C35.05659962 13.27980535 33.89025791 14.32778966 31.3515625 16.23828125 C28.29483944 16.85210849 25.27777485 16.82261235 22.16796875 16.8046875 C21.27544907 16.81088608 20.38292938 16.81708466 19.46336365 16.82347107 C17.57804453 16.83056659 15.69266272 16.82739986 13.80737305 16.81469727 C10.92704525 16.80084369 8.04997466 16.83488907 5.16992188 16.87304688 C3.33593671 16.87399823 1.50194748 16.87213836 -0.33203125 16.8671875 C-1.19050156 16.88044571 -2.04897186 16.89370392 -2.93345642 16.90736389 C-7.31713535 16.83933059 -9.11765203 16.64674439 -12.69946289 13.89038086 C-14.6484375 11.23828125 -14.6484375 11.23828125 -15.1484375 8.17578125 C-14.60098942 4.95952378 -13.9408684 3.53071215 -11.6484375 1.23828125 C-7.76462685 -0.0563223 -4.05057717 0.03640472 0 0 Z " fill="#000000" transform="translate(395.6484375,397.76171875)"/>
<path d="M0 0 C0.84954254 -0.00807175 1.69908508 -0.01614349 2.57437134 -0.02445984 C4.37150033 -0.03828423 6.16865539 -0.04901374 7.96582031 -0.05688477 C10.70949096 -0.07411156 13.45196058 -0.11801275 16.1953125 -0.16210938 C17.94269949 -0.17223564 19.6900967 -0.18075195 21.4375 -0.1875 C22.2553598 -0.20500809 23.0732196 -0.22251617 23.91586304 -0.24055481 C27.93404759 -0.22530279 29.88462446 -0.05594902 33.36938477 2.13989258 C35.3515625 4.23828125 35.3515625 4.23828125 35.98046875 6.23828125 C35.95855469 6.89828125 35.93664062 7.55828125 35.9140625 8.23828125 C35.91599609 9.22828125 35.91599609 9.22828125 35.91796875 10.23828125 C35.05659962 13.27980535 33.89025791 14.32778966 31.3515625 16.23828125 C28.29483944 16.85210849 25.27777485 16.82261235 22.16796875 16.8046875 C21.27544907 16.81088608 20.38292938 16.81708466 19.46336365 16.82347107 C17.57804453 16.83056659 15.69266272 16.82739986 13.80737305 16.81469727 C10.92704525 16.80084369 8.04997466 16.83488907 5.16992188 16.87304688 C3.33593671 16.87399823 1.50194748 16.87213836 -0.33203125 16.8671875 C-1.19050156 16.88044571 -2.04897186 16.89370392 -2.93345642 16.90736389 C-7.31713535 16.83933059 -9.11765203 16.64674439 -12.69946289 13.89038086 C-14.6484375 11.23828125 -14.6484375 11.23828125 -15.1484375 8.17578125 C-14.60098942 4.95952378 -13.9408684 3.53071215 -11.6484375 1.23828125 C-7.76462685 -0.0563223 -4.05057717 0.03640472 0 0 Z " fill="#000000" transform="translate(395.6484375,364.76171875)"/>
<path d="M0 0 C0.99386719 -0.03738281 1.98773438 -0.07476562 3.01171875 -0.11328125 C10.33318042 -0.20149163 10.33318042 -0.20149163 14.28515625 2.67578125 C16.69416415 6.21001577 16.81137526 8.18048454 16.125 12.375 C14.0665989 15.02388953 12.86523931 16.22182045 9.54711914 16.90844727 C6.42573224 16.94408255 3.30906016 16.9689189 0.1875 16.9375 C-0.89724609 16.96134766 -1.98199219 16.98519531 -3.09960938 17.00976562 C-11.02228395 16.99515713 -11.02228395 16.99515713 -15.09765625 14.03125 C-17.26746711 10.78845575 -17.52671809 9.20384376 -16.875 5.375 C-13.19216186 -1.11381006 -6.635499 0.09393885 0 0 Z " fill="#000000" transform="translate(397.875,430.625)"/>
</svg>
