<svg id="svg" xmlns="http://www.w3.org/2000/svg" xmlns:xlink="http://www.w3.org/1999/xlink" width="400" height="400" viewBox="0, 0, 400,400"><g id="svgg"><path id="path0" d="M50.655 7.173 C 43.371 9.113,38.327 16.470,38.298 25.195 L 38.281 30.469 33.789 30.473 C 23.811 30.483,16.662 35.545,14.874 43.866 C 14.210 46.962,14.038 91.247,14.215 214.453 L 14.453 380.859 16.135 383.984 C 18.084 387.606,20.377 389.852,24.219 391.901 C 26.856 393.307,31.438 393.359,152.734 393.359 C 274.031 393.359,278.613 393.307,281.250 391.901 C 287.800 388.407,290.694 383.590,291.237 375.276 L 291.601 369.692 297.168 369.406 C 310.755 368.707,315.625 361.608,315.625 342.501 C 315.625 332.032,314.710 329.344,310.857 328.498 C 305.375 327.294,304.352 329.378,303.906 342.659 C 303.478 355.430,303.335 355.916,299.539 357.502 C 295.663 359.121,57.499 359.137,53.625 357.518 C 48.929 355.556,49.183 365.826,49.405 186.977 L 49.609 22.001 51.503 19.985 L 53.397 17.969 176.503 17.994 C 272.043 18.013,299.887 18.232,300.849 18.970 C 303.886 21.302,303.906 21.707,303.906 80.244 C 303.906 144.079,303.594 140.625,309.363 140.625 C 316.044 140.625,315.743 143.786,315.467 76.563 L 315.234 19.922 313.397 16.190 C 311.374 12.081,307.822 8.971,303.322 7.365 C 299.687 6.067,55.502 5.882,50.655 7.173 M165.684 32.831 C 105.247 45.555,100.110 129.283,158.594 148.390 C 199.195 161.654,240.754 127.540,235.912 84.924 C 232.040 50.847,198.451 25.932,165.684 32.831 M38.298 198.633 C 38.318 373.836,37.850 358.777,43.443 364.370 C 48.984 369.911,39.094 369.495,165.820 369.514 L 279.688 369.531 279.688 373.864 C 279.687 377.422,279.345 378.539,277.770 380.114 L 275.852 382.031 152.734 382.031 L 29.616 382.031 27.699 380.114 L 25.781 378.196 25.781 211.890 L 25.781 45.585 27.539 43.986 C 29.808 41.922,30.924 41.543,34.961 41.468 L 38.281 41.406 38.298 198.633 M188.457 44.964 C 215.101 51.443,231.102 80.504,222.343 106.506 C 210.173 142.631,163.941 151.391,139.713 122.162 C 110.315 86.696,143.558 34.045,188.457 44.964 M197.656 70.078 C 197.012 70.302,189.896 77.032,181.843 85.033 L 167.201 99.581 161.901 94.322 C 154.691 87.167,148.438 87.336,148.438 94.686 C 148.438 98.534,163.324 113.281,167.209 113.281 C 171.393 113.281,204.688 79.885,204.688 75.688 C 204.688 71.853,201.003 68.914,197.656 70.078 M340.625 140.676 C 322.722 143.352,311.796 155.108,307.384 176.444 C 303.404 195.686,296.922 209.561,285.950 222.321 L 283.887 224.720 273.389 215.833 C 253.131 198.684,246.795 198.621,232.626 215.428 C 223.152 226.666,222.580 228.119,226.207 231.746 L 228.195 233.734 224.791 237.766 C 219.285 244.287,218.750 245.341,218.750 249.678 C 218.750 255.265,217.740 254.268,255.970 286.407 C 300.434 323.789,297.901 322.577,308.238 311.403 C 313.382 305.843,313.842 305.529,315.270 306.608 C 319.385 309.720,321.988 308.431,329.418 299.603 C 344.968 281.127,344.213 275.191,324.202 258.594 C 318.244 253.652,313.349 249.222,313.325 248.748 C 313.064 243.621,340.248 224.267,358.023 216.923 C 374.483 210.124,382.897 200.266,385.270 185.000 C 388.523 164.075,373.476 143.561,352.734 140.644 C 346.619 139.784,346.598 139.784,340.625 140.676 M354.801 153.129 C 372.970 158.860,380.108 180.292,368.841 195.287 C 364.775 200.698,361.313 203.054,351.161 207.316 C 334.775 214.195,322.166 222.541,310.715 234.085 L 303.606 241.252 298.300 236.886 L 292.993 232.521 294.948 230.128 C 307.143 215.200,314.150 200.290,318.352 180.322 C 323.146 157.547,336.714 147.424,354.801 153.129 M68.281 177.942 C 65.489 179.806,64.912 184.443,67.188 186.719 C 68.726 188.257,69.792 188.281,136.328 188.281 C 212.022 188.281,207.031 188.667,207.031 182.813 C 207.031 176.958,211.999 177.342,136.523 177.356 C 99.463 177.362,68.754 177.626,68.281 177.942 M67.188 209.375 C 64.912 211.651,65.489 216.288,68.281 218.152 C 68.754 218.468,99.463 218.731,136.523 218.738 C 211.999 218.751,207.031 219.136,207.031 213.281 C 207.031 207.426,212.022 207.813,136.328 207.813 C 69.792 207.813,68.726 207.837,67.188 209.375 M268.550 227.114 C 333.649 281.628,328.125 276.708,328.125 280.173 C 328.125 282.925,320.060 294.016,318.371 293.586 C 317.883 293.461,299.689 278.436,277.940 260.195 L 238.397 227.031 239.860 224.977 C 249.340 211.663,250.174 211.726,268.550 227.114 M67.188 239.844 C 65.179 241.852,65.200 244.562,67.244 247.160 L 68.863 249.219 136.385 249.219 C 202.865 249.219,203.930 249.195,205.469 247.656 C 207.338 245.787,207.491 242.410,205.815 240.018 L 204.599 238.281 136.674 238.281 C 69.792 238.281,68.726 238.305,67.188 239.844 M271.132 269.636 L 304.764 297.865 302.982 299.909 C 302.001 301.033,300.369 302.886,299.353 304.027 L 297.507 306.101 265.746 279.518 C 248.277 264.897,233.146 252.131,232.121 251.149 L 230.258 249.363 233.684 245.385 C 235.568 243.197,237.197 241.407,237.305 241.407 C 237.412 241.406,252.634 254.109,271.132 269.636 M66.841 270.486 C 65.183 272.853,65.315 275.176,67.244 277.629 L 68.863 279.688 136.249 279.688 L 203.634 279.688 205.333 277.879 C 207.330 275.753,207.515 272.914,205.815 270.486 L 204.599 268.750 136.328 268.750 L 68.057 268.750 66.841 270.486 M68.996 299.209 C 65.487 300.654,64.666 304.820,67.244 308.098 L 68.863 310.156 96.932 310.156 C 128.468 310.156,128.125 310.219,128.125 304.418 C 128.125 298.841,128.161 298.848,97.771 298.667 C 82.883 298.579,69.935 298.823,68.996 299.209 M68.996 329.693 C 65.490 331.106,64.665 335.287,67.244 338.567 L 68.863 340.625 96.932 340.625 C 128.521 340.625,128.125 340.699,128.125 334.822 C 128.125 328.997,127.612 328.900,97.356 328.956 C 82.697 328.983,69.935 329.315,68.996 329.693 " stroke="none" fill="#052faa" fill-rule="evenodd"></path></g></svg>