<?xml version="1.0" encoding="UTF-8"?>
<svg version="1.1" xmlns="http://www.w3.org/2000/svg" width="512" height="512">
<path d="M0 0 C2.03613538 2.92141163 1.87691503 5.41347906 1.87109375 8.90625 C1.30861095 11.70346178 0.79138739 12.42890215 -1.5625 14.0625 C-4.12821836 14.88480838 -6.64353659 15.59156171 -9.25 16.25 C-23.18617693 20.09178425 -34.88933017 26.21168916 -45.5625 36.0625 C-46.61824219 36.98095703 -46.61824219 36.98095703 -47.6953125 37.91796875 C-62.48325914 51.51708047 -70.99090399 72.33152092 -71.99786377 92.14959717 C-72.12487545 95.57850635 -72.19387169 99.00680835 -72.25 102.4375 C-72.28329076 103.86721629 -72.3177905 105.29690496 -72.35351562 106.7265625 C-72.43704221 110.17167088 -72.50446338 113.61685646 -72.5625 117.0625 C-69.9225 116.7325 -67.2825 116.4025 -64.5625 116.0625 C-64.52125 115.340625 -64.48 114.61875 -64.4375 113.875 C-63.16784887 109.7939785 -60.98527215 108.57718974 -57.5625 106.0625 C-54.74370102 104.65310051 -52.33422181 104.89845517 -49.18359375 104.8515625 C-47.87817627 104.82553955 -46.57275879 104.7995166 -45.2277832 104.77270508 C-44.53721832 104.75946198 -43.84665344 104.74621887 -43.13516235 104.73257446 C-31.07732895 104.4780269 -19.29770866 104.11253395 -7.5625 101.0625 C-6.77907227 100.85995605 -5.99564453 100.65741211 -5.18847656 100.44873047 C11.00242024 96.14264089 25.76059293 90.09631094 40.06103516 81.35058594 C45.04583202 78.41727322 49.58800481 76.85782664 55.4375 77.0625 C61.90806227 78.80531294 65.62477733 83.08819834 69.86328125 88.06640625 C73.43827501 92.2272867 77.221378 96.18424343 81.00854492 100.15185547 C88.31661531 107.9268704 88.31661531 107.9268704 88.625 113.375 C88.563125 114.261875 88.50125 115.14875 88.4375 116.0625 C92.3975 116.5575 92.3975 116.5575 96.4375 117.0625 C95.6792101 92.05126326 94.36666559 69.08869123 79.4375 48.0625 C78.84453125 47.19367187 78.2515625 46.32484375 77.640625 45.4296875 C66.37881443 30.0770483 48.8018723 20.52487393 30.66455078 15.78369141 C26.56650248 14.66565869 24.03091542 13.47759159 21.4375 10.0625 C20.88423452 6.18964161 20.87418798 4.01768126 22.875 0.625 C27.10144712 -1.95210191 31.84375009 -1.46101716 36.6159668 -0.49780273 C38.79810122 0.1138007 40.92524124 0.80904023 43.0625 1.5625 C43.8359375 1.82949707 44.609375 2.09649414 45.40625 2.37158203 C57.40539136 6.67701165 67.81198552 12.65518789 77.4375 21.0625 C78.10910156 21.59101563 78.78070313 22.11953125 79.47265625 22.6640625 C99.03920004 38.45733641 109.58368128 64.31654747 112.22848511 88.65139771 C112.54557347 92.30918715 112.55364282 95.94417889 112.54296875 99.61328125 C112.5564245 101.21550826 112.5714476 102.81772274 112.58789062 104.41992188 C112.61063724 106.8949004 112.6250331 109.36843728 112.61254883 111.84350586 C112.57214189 122.80907653 113.57643818 130.47082416 119.4375 140.0625 C121.87553403 147.3766021 121.3918613 156.80457299 118.5390625 163.9765625 C113.66419474 173.20769506 106.34388041 180.03127089 96.4921875 183.51953125 C93.83287081 184.22227844 91.15425105 184.64305827 88.4375 185.0625 C88.14359375 186.5165625 88.14359375 186.5165625 87.84375 188 C84.72833024 202.35841457 78.50374552 220.69099852 65.63500977 229.26318359 C62.46103811 231.46704976 60.70668056 232.94056264 59.78344727 236.78857422 C59.52521012 240.0230135 59.46751841 243.1931622 59.5 246.4375 C59.48388672 247.55511719 59.46777344 248.67273438 59.45117188 249.82421875 C59.41594781 252.57169594 59.41826973 255.3150288 59.4375 258.0625 C60.03919006 258.23356262 60.64088013 258.40462524 61.26080322 258.58087158 C67.57163976 260.41858158 73.67914265 262.58718514 79.796875 264.984375 C81.25379257 265.54995872 81.25379257 265.54995872 82.74014282 266.12696838 C85.89086077 267.3514169 89.0392984 268.5815975 92.1875 269.8125 C94.37575473 270.66576024 96.56406915 271.51886741 98.75244141 272.37182617 C103.18198823 274.09934332 107.61039445 275.82974525 112.03808594 277.56201172 C117.03428417 279.51596486 122.034332 281.45974193 127.03662109 283.39804077 C130.49249952 284.73849534 133.94587591 286.08530048 137.39855957 287.43395996 C138.98607978 288.05283194 140.57451776 288.66935572 142.16394043 289.2833252 C164.90091084 298.07456428 184.0692066 310.06932003 194.4375 333.0625 C197.74834826 341.80089476 199.56564002 350.79255653 199.6875 360.125 C199.71328125 361.31222656 199.7390625 362.49945313 199.765625 363.72265625 C199.40990564 367.3433712 198.61448762 369.18274695 196.4375 372.0625 C193.54888291 373.50680855 191.64102299 373.43938506 188.4375 373.0625 C185.73202561 371.05145747 183.7911354 369.41367436 182.91430664 366.06347656 C182.63662675 363.70643233 182.48691809 361.37060738 182.375 359 C181.11984083 343.24692962 175.77114323 330.90599461 164.375 319.75 C152.29104898 310.03804841 136.40560167 305.14159747 122.0625 299.8125 C119.27638602 298.76788912 116.49119497 297.7208481 113.70614624 296.67340088 C111.99280864 296.03001952 110.27869857 295.38868947 108.56362915 294.74993896 C102.81952332 292.60660166 97.12124774 290.36097725 91.4375 288.0625 C91.21167236 288.83650146 90.98584473 289.61050293 90.75317383 290.40795898 C88.98975758 295.30619201 86.70260497 299.87735219 84.38671875 304.53515625 C83.89089798 305.53582626 83.39507721 306.53649628 82.88423157 307.56748962 C81.83654107 309.67734344 80.78662147 311.78609164 79.73461914 313.89379883 C78.13126745 317.11241853 76.54299847 320.33819836 74.95507812 323.56445312 C73.93321285 325.61764623 72.91045595 327.67039586 71.88671875 329.72265625 C71.41570236 330.68422134 70.94468597 331.64578644 70.45939636 332.63648987 C67.56311224 338.39025496 64.90502859 342.63522999 59.5625 346.375 C54.55065207 347.99648021 50.60879028 347.36281656 46 345.0625 C44.80496945 344.40942828 43.61460176 343.74735921 42.4375 343.0625 C39.67910799 345.43128862 37.96677385 347.75695122 36.4375 351.0625 C36.35550309 354.19862644 36.35550309 354.19862644 36.96875 357.67578125 C37.11599014 358.69216423 37.11599014 358.69216423 37.26620483 359.7290802 C37.6319698 362.17805215 38.03181437 364.6198237 38.4375 367.0625 C38.59945862 368.04861267 38.76141724 369.03472534 38.92828369 370.05072021 C40.46587137 379.34983626 42.08386888 388.63482381 43.70214844 397.92016602 C44.31786212 401.46051967 44.92863224 405.00170095 45.5390625 408.54296875 C45.7296524 409.62627975 45.92024231 410.70959076 46.11660767 411.82572937 C46.29033905 412.8348085 46.46407043 413.84388763 46.64306641 414.88354492 C46.87384384 416.20681038 46.87384384 416.20681038 47.10928345 417.55680847 C47.44096735 420.08897065 47.49569271 422.51183868 47.4375 425.0625 C48.60667969 425.18367188 49.77585937 425.30484375 50.98046875 425.4296875 C52.52868671 425.59858401 54.07686161 425.76787568 55.625 425.9375 C56.39392578 426.01613281 57.16285156 426.09476562 57.95507812 426.17578125 C63.78851364 426.82672255 67.89709789 427.52209789 72.1875 431.8125 C74.5819641 435.27117037 75.4375 436.88808756 75.4375 441.0625 C73.51184052 449.02189252 70.8280733 450.6719267 64.4375 457.0625 C74.6675 457.0625 84.8975 457.0625 95.4375 457.0625 C93.1275 454.7525 90.8175 452.4425 88.4375 450.0625 C85.14400043 446.1315489 84.86344096 442.49136265 85.01953125 437.50390625 C85.72113935 433.40572811 87.34125486 431.8147179 90.4375 429.0625 C93.92775523 427.41077976 97.13709679 426.68042665 100.95703125 426.2109375 C101.97861328 426.08203125 103.00019531 425.953125 104.05273438 425.8203125 C105.63538086 425.63082031 105.63538086 425.63082031 107.25 425.4375 C108.32443359 425.3034375 109.39886719 425.169375 110.50585938 425.03125 C113.14905761 424.70231866 115.79286252 424.37961501 118.4375 424.0625 C118.43305878 423.4722554 118.42861755 422.8820108 118.42404175 422.27388 C118.37976443 416.12572655 118.34961524 409.97761847 118.32763672 403.8293457 C118.31758472 401.53538167 118.3039411 399.24143043 118.28662109 396.94750977 C118.26233791 393.64856812 118.25100877 390.34979603 118.2421875 387.05078125 C118.23186493 386.02664627 118.22154236 385.00251129 118.21090698 383.94734192 C118.21075592 382.98672348 118.21060486 382.02610504 118.21044922 381.03637695 C118.206008 380.19476517 118.20156677 379.35315338 118.19699097 378.48603821 C118.58541131 374.5720416 119.65462131 371.84537869 122.4375 369.0625 C125.42911275 368.09224721 127.07538051 367.9614434 130.125 368.8125 C132.4375 370.0625 132.4375 370.0625 134.4375 373.0625 C134.75634766 375.69799805 134.75634766 375.69799805 134.8515625 378.82421875 C134.89023437 379.94248047 134.92890625 381.06074219 134.96875 382.21289062 C135.01515625 383.96375977 135.01515625 383.96375977 135.0625 385.75 C135.10117187 386.92884766 135.13984375 388.10769531 135.1796875 389.32226562 C135.27404391 392.23551977 135.35963161 395.14876607 135.4375 398.0625 C136.55125 396.886875 136.55125 396.886875 137.6875 395.6875 C140.6444866 392.86492188 142.50708414 391.16610014 146.62109375 390.9453125 C147.36488281 391.02523438 148.10867188 391.10515625 148.875 391.1875 C149.98681641 391.28417969 149.98681641 391.28417969 151.12109375 391.3828125 C155.35877066 392.62624552 157.89227788 395.17990834 160.18261719 398.88745117 C160.9507373 400.48036987 160.9507373 400.48036987 161.734375 402.10546875 C162.30027344 403.26111328 162.86617188 404.41675781 163.44921875 405.60742188 C164.02910912 406.82139339 164.6085309 408.03558884 165.1875 409.25 C166.34531268 411.64110742 167.50896777 414.02933057 168.671875 416.41796875 C169.17944336 417.47653076 169.68701172 418.53509277 170.20996094 419.62573242 C171.22198519 421.95144492 171.22198519 421.95144492 172.4375 423.0625 C174.28349688 423.45704223 176.13975822 423.80426866 178 424.125 C179.01191406 424.30160156 180.02382813 424.47820312 181.06640625 424.66015625 C181.84886719 424.79292969 182.63132812 424.92570312 183.4375 425.0625 C183.42178955 424.23524414 183.4060791 423.40798828 183.38989258 422.55566406 C183.32753696 418.80801223 183.28850654 415.06046955 183.25 411.3125 C183.21229492 409.35957031 183.21229492 409.35957031 183.17382812 407.3671875 C183.16416016 406.11679687 183.15449219 404.86640625 183.14453125 403.578125 C183.1288208 402.42602539 183.11311035 401.27392578 183.09692383 400.08691406 C183.4735669 396.74221555 184.0397838 395.3908622 186.4375 393.0625 C189.86640226 392.18968851 192.33009577 391.73327171 195.75 392.75 C197.8744722 394.40236727 198.46520882 395.53988348 199.4375 398.0625 C199.66455078 401.27050781 199.66455078 401.27050781 199.6328125 405.015625 C199.62856766 406.00595734 199.62856766 406.00595734 199.62423706 407.01629639 C199.61308415 409.11521897 199.58798946 411.21370742 199.5625 413.3125 C199.55246384 414.73957715 199.5433391 416.16666102 199.53515625 417.59375 C199.51316111 421.08347328 199.47866536 424.57294423 199.4375 428.0625 C200.21738281 428.19140625 200.99726563 428.3203125 201.80078125 428.453125 C205.15256224 429.22775883 206.29609309 430.40420177 208.4375 433.0625 C210.47510738 436.55554121 210.93758231 439.81271663 210.2890625 443.83203125 C208.38560028 448.81770523 204.15679477 452.3709198 200.4375 456.0625 C199.54160156 456.98289062 198.64570313 457.90328125 197.72265625 458.8515625 C191.04270833 465.65902778 191.04270833 465.65902778 187.4375 468.0625 C187.72583501 470.47960628 188.01753085 472.8961997 188.3125 475.3125 C188.44458862 476.40208008 188.44458862 476.40208008 188.5793457 477.51367188 C189.1243119 481.89652995 189.80671038 486.2205551 190.625 490.5625 C191.52154226 495.89837249 192.34894507 501.00819791 189.3203125 505.84765625 C186.9939672 508.75902922 185.18447117 510.83175203 181.41723633 511.3293457 C174.20472762 511.61206287 169.38441165 509.67244637 163.125 506.25 C162.25810547 505.79818359 161.39121094 505.34636719 160.49804688 504.88085938 C157.08375664 503.08868404 153.80978187 501.3223163 150.64453125 499.11328125 C148.45028392 497.75538862 148.45028392 497.75538862 146.08325195 498.85009766 C143.64163599 499.96895572 141.26562516 501.14221961 138.8984375 502.41015625 C138.07085937 502.85037109 137.24328125 503.29058594 136.390625 503.74414062 C135.11445312 504.42766602 135.11445312 504.42766602 133.8125 505.125 C132.11310611 506.03466054 130.41262986 506.94230273 128.7109375 507.84765625 C127.96247559 508.24863525 127.21401367 508.64961426 126.44287109 509.06274414 C121.57050626 511.49180842 116.78138447 511.82591207 111.4375 511.0625 C108.31284814 509.3876866 106.04495808 507.27741615 104.4375 504.0625 C103.57182652 493.65777071 105.59905412 484.48036 107.4375 474.0625 C89.2875 474.0625 71.1375 474.0625 52.4375 474.0625 C53.7575 481.9825 55.0775 489.9025 56.4375 498.0625 C54.05625453 507.5874819 54.05625453 507.5874819 50.3046875 510.19921875 C46.20641717 512.09402575 42.811429 512.05070476 38.4375 511.0625 C30.33965042 507.92049213 22.57991532 503.43288235 15.33203125 498.6796875 C12.02300903 497.60169676 9.15868669 499.70283983 6.17333984 501.19165039 C5.42262207 501.59375732 4.6719043 501.99586426 3.8984375 502.41015625 C3.07085937 502.85037109 2.24328125 503.29058594 1.390625 503.74414062 C0.53984375 504.19982422 -0.3109375 504.65550781 -1.1875 505.125 C-2.88689389 506.03466054 -4.58737014 506.94230273 -6.2890625 507.84765625 C-7.03752441 508.24863525 -7.78598633 508.64961426 -8.55712891 509.06274414 C-13.44194359 511.49801516 -18.2062522 511.803878 -23.5625 511.0625 C-26.8969141 509.42585275 -28.97329778 507.13951574 -30.765625 503.86328125 C-31.80044642 500.22618831 -31.37564319 497.10497 -30.8125 493.4375 C-30.72484375 492.78910156 -30.6371875 492.14070313 -30.546875 491.47265625 C-29.73033548 485.63213054 -28.6185669 479.87086795 -27.5625 474.0625 C-45.7125 474.0625 -63.8625 474.0625 -82.5625 474.0625 C-81.5725 479.6725 -80.5825 485.2825 -79.5625 491.0625 C-78.68080833 503.73681782 -78.68080833 503.73681782 -81.9375 507.8125 C-85.81233324 511.13378563 -88.36133918 511.63850456 -93.37890625 511.609375 C-102.63819805 510.01882181 -111.85759165 503.83216906 -119.5703125 498.6796875 C-124.03321526 497.29706272 -128.32498963 500.40349992 -132.234375 502.41015625 C-133.92955176 503.31047174 -135.62221273 504.21553798 -137.3125 505.125 C-139.01561773 506.03256573 -140.71874239 506.94011845 -142.421875 507.84765625 C-143.16920898 508.24863525 -143.91654297 508.64961426 -144.68652344 509.06274414 C-149.31852671 511.53125708 -153.34043813 511.77532746 -158.5625 511.0625 C-161.96427448 509.39618364 -164.05149493 507.1050187 -165.73046875 503.6796875 C-166.60856812 500.91759089 -166.69283848 499.23554633 -166.375 496.375 C-166.27058594 495.43011719 -166.16617188 494.48523438 -166.05859375 493.51171875 C-165.67376941 490.83612901 -165.24880144 488.18176979 -164.78515625 485.51953125 C-164.64682373 484.72313232 -164.50849121 483.9267334 -164.3659668 483.10620117 C-164.08449939 481.51731368 -163.79328526 479.93011609 -163.49145508 478.3449707 C-162.44563027 472.66385891 -162.44563027 472.66385891 -163.5625 467.0625 C-165.00516464 465.35275366 -165.00516464 465.35275366 -166.9375 463.9375 C-170.55208759 460.94386326 -174.01340745 457.836662 -177.375 454.5625 C-178.28894531 453.6859375 -179.20289063 452.809375 -180.14453125 451.90625 C-183.69995791 447.7247466 -185.63162712 444.06718661 -185.4375 438.4375 C-184.1664396 433.53483845 -182.79873429 430.88665619 -178.5625 428.0625 C-177.2425 428.0625 -175.9225 428.0625 -174.5625 428.0625 C-174.57249275 426.69972427 -174.57249275 426.69972427 -174.58268738 425.30941772 C-174.64314008 416.69014684 -174.68864647 408.07094856 -174.71793652 399.45151329 C-174.7335017 395.02161895 -174.75456977 390.59190179 -174.78881836 386.16210938 C-174.821742 381.87619952 -174.83942152 377.59045861 -174.84713173 373.30443192 C-174.85261669 371.68039928 -174.86332477 370.05637445 -174.87969017 368.43241501 C-175.09311528 346.34814356 -169.71309459 326.67130197 -154.1875 310.25 C-138.59835361 295.83537834 -118.43221671 289.52862007 -98.95546341 282.09790802 C-95.76633538 280.8800048 -92.57940299 279.65638446 -89.39233398 278.43310547 C-85.60392141 276.97932798 -81.81535627 275.52595888 -78.02574158 274.07531738 C-71.0105821 271.38918328 -64.00169942 268.68808638 -57.00390625 265.95703125 C-56.25744843 265.66603043 -55.5109906 265.3750296 -54.74191284 265.07521057 C-52.06244211 264.03029592 -49.38307413 262.98517189 -46.70605469 261.93399048 C-44.98353809 261.25783067 -43.25940367 260.58579635 -41.53515625 259.9140625 C-40.60968994 259.55135254 -39.68422363 259.18864258 -38.73071289 258.81494141 C-36.5625 258.0625 -36.5625 258.0625 -34.5625 258.0625 C-33.56409666 244.84867229 -33.56409666 244.84867229 -37.76171875 232.83203125 C-40.54342925 230.4594106 -40.54342925 230.4594106 -43.5703125 228.33984375 C-56.6950709 218.35063468 -61.8152238 200.27644137 -65.5625 185.0625 C-66.68785156 184.85947266 -66.68785156 184.85947266 -67.8359375 184.65234375 C-78.34581672 182.44182759 -86.2482444 178.01563391 -92.3828125 169.0390625 C-97.04797301 161.22260151 -98.88730905 152.61352429 -97.06640625 143.609375 C-95.90945159 139.34759852 -94.5943993 136.09593888 -92.02636719 132.50537109 C-89.03854184 127.75290846 -88.89116935 123.794051 -88.99609375 118.2890625 C-88.99045914 117.36644623 -88.98482452 116.44382996 -88.97901917 115.49325562 C-88.96266684 112.55747961 -88.97797604 109.623221 -89 106.6875 C-89.1882289 74.19755528 -81.29295368 48.60669891 -58.5 24.5625 C-45.51934757 11.86910958 -18.80124773 -6.87850527 0 0 Z M51.4375 94.0625 C50.7053125 94.52398437 49.973125 94.98546875 49.21875 95.4609375 C22.78147628 111.38624762 -6.31913632 119.51458213 -37.01171875 120.60546875 C-38.82319397 120.67235901 -38.82319397 120.67235901 -40.67126465 120.74060059 C-43.63494661 120.84976959 -46.59868504 120.95701405 -49.5625 121.0625 C-49.65609984 128.60906684 -49.72671317 136.15557187 -49.76974869 143.70259094 C-49.79042701 147.20884019 -49.81837078 150.71468599 -49.86425781 154.22070312 C-50.16346747 177.71050462 -49.90509376 197.83576247 -32.83984375 215.78125 C-32.08832031 216.5340625 -31.33679688 217.286875 -30.5625 218.0625 C-29.92441406 218.7121875 -29.28632813 219.361875 -28.62890625 220.03125 C-16.28565443 231.73296067 -0.0234638 235.04612093 16.4375 235.0625 C31.12062093 234.09765932 46.59085573 227.10446589 56.68359375 216.2578125 C66.13701339 204.42524716 72.39051182 191.7675968 72.67797852 176.37963867 C72.69097488 175.72851608 72.70397125 175.07739349 72.71736145 174.40653992 C72.84367584 167.62906428 72.90072393 160.85040785 72.95239258 154.07202148 C72.97915282 150.86201282 73.02791598 147.65348607 73.09594727 144.4440918 C73.17816297 140.55426492 73.22061326 136.66585026 73.23545647 132.7752018 C73.24765285 131.29956552 73.27356752 129.82397215 73.31390572 128.3488369 C73.6828367 120.03114244 73.6828367 120.03114244 70.72848511 112.47354126 C68.73142819 110.47515909 66.66408829 108.79490936 64.4375 107.0625 C63.19832229 105.69397571 61.98507953 104.30100048 60.8125 102.875 C57.99503903 99.47831482 54.85626307 96.83485829 51.4375 94.0625 Z M88.4375 132.0625 C88.4375 143.9425 88.4375 155.8225 88.4375 168.0625 C94.91053395 166.98366101 97.23412406 165.77537605 101.4375 161.0625 C104.22088858 156.21401666 105.38854856 151.61028324 104.4375 146.0625 C102.29868498 139.74954598 99.05876394 136.19265526 93.3125 132.8125 C91.30983446 131.87680466 91.30983446 131.87680466 88.4375 132.0625 Z M-76.5625 138.0625 C-80.5873128 142.60331444 -81.83356929 147.08854978 -81.5625 153.0625 C-79.647297 159.11050947 -77.01400554 163.61160896 -71.5 166.875 C-68.62701963 168.24989459 -68.62701963 168.24989459 -65.5625 168.0625 C-65.5625 156.5125 -65.5625 144.9625 -65.5625 133.0625 C-70.108022 133.0625 -73.0151167 135.35905063 -76.5625 138.0625 Z M37.1875 245.9375 C18.30936872 252.26010454 0.34800766 250.25769441 -18.5625 245.0625 C-19.63671596 252.80987568 -20.01560749 259.04564409 -15.18603516 265.46533203 C-13.22378447 267.81856501 -11.20944871 270.10994698 -9.12792969 272.35839844 C-7.09916345 274.56688071 -5.18084635 276.85809124 -3.25830078 279.15893555 C-1.90160498 280.78069705 -0.53063943 282.38931844 0.84375 283.99609375 C4.47870294 288.26797483 7.96666949 292.65683261 11.4375 297.0625 C14.4135924 295.75208049 16.20266034 294.47607564 18.21484375 291.9296875 C18.72233154 291.29571045 19.22981934 290.6617334 19.75268555 290.00854492 C20.28804932 289.3251001 20.82341309 288.64165527 21.375 287.9375 C22.52577798 286.49327943 23.676828 285.0492756 24.828125 283.60546875 C25.41916016 282.85958496 26.01019531 282.11370117 26.61914062 281.34521484 C30.13598629 276.9302703 33.72426574 272.57302722 37.29858398 268.20458984 C37.81235596 267.57375488 38.32612793 266.94291992 38.85546875 266.29296875 C39.30688232 265.74020264 39.7582959 265.18743652 40.22338867 264.61791992 C43.60711895 260.28296203 43.68274002 257.17018547 43.5625 251.875 C43.55347656 251.12541016 43.54445313 250.37582031 43.53515625 249.60351562 C43.51162578 247.75637346 43.47575561 245.90939588 43.4375 244.0625 C41.33839685 244.0625 39.12585823 245.24232964 37.1875 245.9375 Z M-35.3515625 274.8125 C-36.76308594 275.35390625 -36.76308594 275.35390625 -38.203125 275.90625 C-39.18796875 276.2878125 -40.1728125 276.669375 -41.1875 277.0625 C-42.18007812 277.4440625 -43.17265625 277.825625 -44.1953125 278.21875 C-46.65219957 279.16370657 -49.10785296 280.11174307 -51.5625 281.0625 C-50.97526687 284.6050814 -50.04431856 287.46712264 -48.42944336 290.66918945 C-47.98906235 291.54972488 -47.54868134 292.43026031 -47.09495544 293.33747864 C-46.61889359 294.2741185 -46.14283173 295.21075836 -45.65234375 296.17578125 C-44.92199669 297.63010811 -44.92199669 297.63010811 -44.17689514 299.11381531 C-42.62354851 302.20374299 -41.06190014 305.28938858 -39.5 308.375 C-38.44411118 310.47172819 -37.38876615 312.56873031 -36.33398438 314.66601562 C-33.74978644 319.80137013 -31.15876351 324.93323584 -28.5625 330.0625 C-22.07640347 326.00570892 -15.70669181 321.87193198 -9.5625 317.3125 C-8.92183594 316.84457031 -8.28117187 316.37664062 -7.62109375 315.89453125 C-4.72580757 313.76084436 -2.06676431 311.65512799 0.4375 309.0625 C-7.23811659 299.17818558 -15.10169718 289.46420409 -23.10498047 279.84326172 C-24.38618288 278.27791995 -25.62092267 276.67479028 -26.84765625 275.06640625 C-27.41355469 274.40511719 -27.97945312 273.74382812 -28.5625 273.0625 C-31.14195785 273.0625 -32.94157768 273.88334923 -35.3515625 274.8125 Z M53.4375 273.0625 C51.54348677 275.06291847 49.7646227 277.07699794 48 279.1875 C47.46938965 279.81406494 46.9387793 280.44062988 46.39208984 281.08618164 C42.20868542 286.05948132 38.16320498 291.13576833 34.1887207 296.27709961 C31.79058875 299.37522204 29.32673153 302.35535896 26.6875 305.25 C25.945 306.178125 25.2025 307.10625 24.4375 308.0625 C25.52929754 311.33789262 25.92044326 311.67325567 28.6484375 313.48046875 C29.31166016 313.92672607 29.97488281 314.3729834 30.65820312 314.83276367 C31.72458008 315.53429565 31.72458008 315.53429565 32.8125 316.25 C34.26904966 317.22794573 35.72477453 318.20712098 37.1796875 319.1875 C37.89995117 319.67089844 38.62021484 320.15429688 39.36230469 320.65234375 C43.80509885 323.67135306 48.11889631 326.86929515 52.4375 330.0625 C54.51065474 327.41441938 56.20101969 324.79805967 57.72167969 321.80053711 C58.14511658 320.96965073 58.56855347 320.13876434 59.00482178 319.28269958 C59.45182434 318.39405716 59.8988269 317.50541473 60.359375 316.58984375 C60.82361877 315.67038467 61.28786255 314.7509256 61.76617432 313.80360413 C62.74326714 311.86389888 63.71813301 309.92307045 64.69091797 307.98120117 C66.18625968 305.00247073 67.69636312 302.03152752 69.20703125 299.06054688 C70.15456352 297.17494003 71.10120899 295.28888725 72.046875 293.40234375 C72.50197449 292.51167709 72.95707397 291.62101044 73.42596436 290.70335388 C73.8367926 289.87561966 74.24762085 289.04788544 74.67089844 288.19506836 C75.22025055 287.10397011 75.22025055 287.10397011 75.78070068 285.99082947 C76.71479374 283.88569532 76.71479374 283.88569532 75.4375 281.0625 C73.47351492 279.90326045 73.47351492 279.90326045 71.03515625 279.01953125 C69.70000977 278.49262695 69.70000977 278.49262695 68.33789062 277.95507812 C67.40138672 277.59865234 66.46488281 277.24222656 65.5 276.875 C64.56736328 276.50697266 63.63472656 276.13894531 62.67382812 275.75976562 C58.18219902 273.8155185 58.18219902 273.8155185 53.4375 273.0625 Z M-73.87182617 289.60375977 C-74.7409111 289.94153946 -75.60999603 290.27931915 -76.50541687 290.62733459 C-77.44593399 290.99910324 -78.38645111 291.37087189 -79.35546875 291.75390625 C-80.82370842 292.32829689 -80.82370842 292.32829689 -82.3216095 292.91429138 C-84.40310516 293.72989806 -86.48362032 294.54801077 -88.56323242 295.3684082 C-91.69015751 296.60140318 -94.82034133 297.82578936 -97.95117188 299.04882812 C-121.34870594 307.3206891 -121.34870594 307.3206891 -141.5625 321.0625 C-142.27921875 321.75085938 -142.9959375 322.43921875 -143.734375 323.1484375 C-156.82134011 336.77659289 -159.05079193 353.55016687 -158.85546875 371.64453125 C-158.84985734 373.19536422 -158.84559457 374.7462026 -158.84260559 376.29704285 C-158.83127815 380.33301075 -158.80191902 384.3686427 -158.76849365 388.40447998 C-158.73752808 392.5410915 -158.7240443 396.67775854 -158.70898438 400.81445312 C-158.67703454 408.89728773 -158.62598949 416.97985181 -158.5625 425.0625 C-156.78803584 424.98661479 -155.01459483 424.8865241 -153.24194336 424.77612305 C-152.25431503 424.72296432 -151.26668671 424.6698056 -150.24913025 424.61503601 C-147.51014862 424.29602124 -147.51014862 424.29602124 -145.83982849 422.44572449 C-144.52535355 420.38409307 -143.53977782 418.30379088 -142.5625 416.0625 C-141.71938858 414.37793357 -140.87426909 412.69437094 -140.02734375 411.01171875 C-138.74698097 408.36194167 -137.47963072 405.70679717 -136.22460938 403.04492188 C-135.60102539 401.76004883 -135.60102539 401.76004883 -134.96484375 400.44921875 C-134.59866943 399.67795654 -134.23249512 398.90669434 -133.85522461 398.11206055 C-131.96412899 395.1138079 -129.82014358 393.4237867 -126.4140625 392.4453125 C-121.23958732 391.84616274 -118.00584127 391.96249446 -113.5625 395.0625 C-112.2009386 396.70618674 -110.86344905 398.37043407 -109.5625 400.0625 C-109.54268066 399.26030029 -109.52286133 398.45810059 -109.50244141 397.6315918 C-109.40730505 394.00405823 -109.2975792 390.37710955 -109.1875 386.75 C-109.1565625 385.48736328 -109.125625 384.22472656 -109.09375 382.92382812 C-109.05507812 381.71533203 -109.01640625 380.50683594 -108.9765625 379.26171875 C-108.9451416 378.14627686 -108.9137207 377.03083496 -108.88134766 375.8815918 C-108.5625 373.0625 -108.5625 373.0625 -106.5625 370.0625 C-103.63107712 369.03254061 -101.90778851 368.98220035 -98.875 369.6875 C-95.89414417 371.45990076 -95.60945046 372.80355873 -94.5625 376.0625 C-94.2840271 378.48603821 -94.2840271 378.48603821 -94.24365234 381.03637695 C-94.22378265 381.99699539 -94.20391296 382.95761383 -94.18344116 383.94734192 C-94.17188995 384.9714769 -94.16033875 385.99561188 -94.1484375 387.05078125 C-94.12907135 388.10911667 -94.1097052 389.16745209 -94.0897522 390.25785828 C-94.03008752 393.63015748 -93.98362307 397.00249106 -93.9375 400.375 C-93.89930819 402.66472823 -93.86025576 404.95444228 -93.8203125 407.24414062 C-93.72439674 412.85013431 -93.63931089 418.45621376 -93.5625 424.0625 C-92.3962207 424.26818604 -91.22994141 424.47387207 -90.02832031 424.68579102 C-88.48242137 424.95849322 -86.93652296 425.23119846 -85.390625 425.50390625 C-84.24037842 425.70675232 -84.24037842 425.70675232 -83.06689453 425.91369629 C-81.56943447 426.17788299 -80.07207656 426.44264939 -78.5748291 426.70803833 C-76.92430284 426.99877025 -75.2723903 427.28162169 -73.62011719 427.56225586 C-68.96288975 428.44571003 -65.93626949 429.68873051 -62.5625 433.0625 C-60.67711915 436.8332617 -60.92076808 440.96621118 -61.5625 445.0625 C-63.17927479 448.11172673 -65.25941189 450.51114321 -67.5625 453.0625 C-68.8825 454.7125 -70.2025 456.3625 -71.5625 458.0625 C-60.6725 458.0625 -49.7825 458.0625 -38.5625 458.0625 C-40.5425 455.7525 -42.5225 453.4425 -44.5625 451.0625 C-47.57066125 447.07871888 -49.45922537 444.12295665 -49.5625 439.0625 C-48.19115659 435.01703693 -46.91692156 431.76409618 -43.5625 429.0625 C-41.29418945 428.35473633 -41.29418945 428.35473633 -38.67578125 427.89453125 C-37.2690918 427.63833008 -37.2690918 427.63833008 -35.83398438 427.37695312 C-34.36928711 427.12848633 -34.36928711 427.12848633 -32.875 426.875 C-31.88693359 426.69775391 -30.89886719 426.52050781 -29.88085938 426.33789062 C-27.44307721 425.90215178 -25.0038865 425.47748181 -22.5625 425.0625 C-20.96996348 416.02382891 -19.38720608 406.98351572 -17.81687069 397.94096088 C-17.08737708 393.74209125 -16.35454179 389.54386262 -15.61401367 385.34692383 C-14.89934911 381.29584389 -14.19353609 377.24331206 -13.49380684 373.18962669 C-13.22543899 371.64414804 -12.95389834 370.09921685 -12.67912102 368.55486488 C-12.29448549 366.38991447 -11.9212272 364.22328361 -11.55053711 362.0559082 C-11.22743813 360.20724907 -11.22743813 360.20724907 -10.89781189 358.32124329 C-10.37267571 353.21768429 -11.32710111 349.98271883 -14.125 345.75 C-14.58003906 345.05261719 -15.03507813 344.35523438 -15.50390625 343.63671875 C-15.85324219 343.11722656 -16.20257813 342.59773438 -16.5625 342.0625 C-17.13097656 342.35125 -17.69945312 342.64 -18.28515625 342.9375 C-23.20351285 345.30225242 -27.00081907 346.88645273 -32.5625 346.0625 C-40.42895615 343.0377012 -42.65365669 337.18242857 -46.15234375 329.859375 C-46.74592711 328.6535313 -47.34129842 327.44856625 -47.93836975 326.2444458 C-49.49661052 323.08998658 -51.03044407 319.92426333 -52.55932617 316.75549316 C-54.1270655 313.51727529 -55.71783225 310.29041763 -57.30664062 307.0625 C-60.41442911 300.74003591 -63.49654897 294.40537187 -66.5625 288.0625 C-69.58090127 288.0625 -71.10507852 288.51974942 -73.87182617 289.60375977 Z M7.9609375 323.46875 C7.290625 323.96503906 6.6203125 324.46132813 5.9296875 324.97265625 C4.88167969 325.75962891 4.88167969 325.75962891 3.8125 326.5625 C3.10609375 327.08714844 2.3996875 327.61179687 1.671875 328.15234375 C-0.07611587 329.45152616 -1.82069626 330.75504078 -3.5625 332.0625 C-2.17735613 336.10250297 -0.76575415 339.18559619 2.4375 342.0625 C5.73901565 342.88289057 8.9236112 342.89700577 12.3125 342.875 C13.64087891 342.94170898 13.64087891 342.94170898 14.99609375 343.00976562 C18.89621934 343.02429664 21.42094258 342.94115618 24.44238281 340.32958984 C26.07111158 338.27697759 27.40912609 336.4744139 28.4375 334.0625 C27.03748582 329.86245746 23.99465855 328.3029045 20.5 325.875 C19.85353516 325.41158203 19.20707031 324.94816406 18.54101562 324.47070312 C13.21835883 320.62660371 13.21835883 320.62660371 7.9609375 323.46875 Z M4.4375 358.0625 C3.43399942 363.64809404 2.4372959 369.23484307 1.44677734 374.82275391 C1.10911013 376.72217244 0.76961198 378.62126645 0.42822266 380.52001953 C-0.06313046 383.2546933 -0.5478128 385.99047968 -1.03125 388.7265625 C-1.18436646 389.57054596 -1.33748291 390.41452942 -1.49523926 391.28408813 C-2.2514444 395.60281502 -2.73698129 399.65684735 -2.5625 404.0625 C-0.77754013 401.74205217 0.80236051 399.45439916 2.3125 396.9375 C4.68436186 393.72851043 5.56464421 392.83707116 9.4375 392.0625 C14.23008309 391.92282545 17.44088637 392.30420702 21.3125 395.25 C23.44829133 398.07678264 25.00742865 400.82602273 26.4375 404.0625 C26.7675 404.0625 27.0975 404.0625 27.4375 404.0625 C26.81805307 394.20989019 25.08527696 384.58168427 23.375 374.875 C23.09009094 373.23900257 22.8055827 371.60293529 22.52148438 369.96679688 C21.8321728 365.99772874 21.13467696 362.03022578 20.4375 358.0625 C15.1575 358.0625 9.8775 358.0625 4.4375 358.0625 Z M-3.5625 404.0625 C-2.5625 406.0625 -2.5625 406.0625 -2.5625 406.0625 Z M27.4375 404.0625 C28.4375 406.0625 28.4375 406.0625 28.4375 406.0625 Z M-123.5625 412.0625 C-123.86430176 412.70799805 -124.16610352 413.35349609 -124.47705078 414.01855469 C-125.86341382 416.95829972 -127.27507458 419.88519342 -128.6875 422.8125 C-129.161875 423.82828125 -129.63625 424.8440625 -130.125 425.890625 C-134.89744011 435.69347495 -134.89744011 435.69347495 -140.5625 438.0625 C-144.825539 439.06339385 -149.10150931 439.71544485 -153.4375 440.3125 C-154.6028125 440.48523438 -155.768125 440.65796875 -156.96875 440.8359375 C-159.83164868 441.25833239 -162.69582421 441.66670148 -165.5625 442.0625 C-161.34096378 447.17503663 -156.88697178 451.54981587 -151.83203125 455.8515625 C-148.69791128 458.90476715 -146.78488628 461.3934073 -146.19921875 465.7890625 C-146.30645861 471.90998379 -146.88471325 477.639256 -148.1171875 483.63671875 C-148.63840541 486.47598474 -148.7181703 489.18259945 -148.5625 492.0625 C-145.54826485 490.95475401 -142.73824393 489.65417177 -139.92578125 488.1171875 C-139.26513672 487.76269531 -138.60449219 487.40820312 -137.92382812 487.04296875 C-136.56973057 486.31234986 -135.22308905 485.56772127 -133.88476562 484.80859375 C-128.46429209 481.94909757 -123.65014406 480.9967709 -117.5625 482.0625 C-114.01492524 483.39211644 -110.82566749 485.14907374 -107.5625 487.0625 C-105.8975332 488.0030156 -104.23094597 488.94067026 -102.5625 489.875 C-101.4796875 490.50341797 -101.4796875 490.50341797 -100.375 491.14453125 C-98.60374803 492.21310733 -98.60374803 492.21310733 -96.5625 492.0625 C-96.69527344 491.02351563 -96.82804687 489.98453125 -96.96484375 488.9140625 C-97.33210452 486.03101355 -97.68833934 483.14682289 -98.0390625 480.26171875 C-98.33447106 477.83947676 -98.65788485 475.4327983 -99.0234375 473.01953125 C-99.13945312 472.18808594 -99.25546875 471.35664063 -99.375 470.5 C-99.53935547 469.44619141 -99.53935547 469.44619141 -99.70703125 468.37109375 C-99.22779378 460.71624666 -94.24313368 456.23519332 -89 451.25 C-87.97229492 450.24936523 -87.97229492 450.24936523 -86.92382812 449.22851562 C-85.66005456 447.99946793 -84.39220022 446.77459155 -83.11889648 445.55541992 C-81.91976438 444.4051936 -80.7374337 443.2374337 -79.5625 442.0625 C-80.65921021 441.90430786 -80.65921021 441.90430786 -81.77807617 441.74291992 C-85.10382918 441.25665552 -88.42681649 440.75351265 -91.75 440.25 C-92.90048828 440.08435547 -94.05097656 439.91871094 -95.23632812 439.74804688 C-96.34814453 439.57724609 -97.45996094 439.40644531 -98.60546875 439.23046875 C-99.62664795 439.07860107 -100.64782715 438.9267334 -101.69995117 438.77026367 C-106.52837517 437.57643841 -108.99481816 435.86032313 -111.875 431.8125 C-115.65990796 425.35874669 -119.08674822 418.68626517 -122.5625 412.0625 C-122.8925 412.0625 -123.2225 412.0625 -123.5625 412.0625 Z M11.4375 412.0625 C11.16075439 412.67770508 10.88400879 413.29291016 10.59887695 413.92675781 C9.32939383 416.72833931 8.03997517 419.52029843 6.75 422.3125 C6.31494141 423.28058594 5.87988281 424.24867188 5.43164062 425.24609375 C1.15594369 434.43092421 1.15594369 434.43092421 -3.5625 437.0625 C-9.20707161 439.11380291 -15.07798232 439.85185172 -21 440.6875 C-21.92232422 440.8215625 -22.84464844 440.955625 -23.79492188 441.09375 C-26.0502014 441.42094081 -28.30601482 441.74374951 -30.5625 442.0625 C-27.89765685 444.7371947 -25.22257838 447.39906298 -22.51953125 450.03515625 C-21.47130866 451.06505785 -20.42313203 452.09500623 -19.375 453.125 C-18.84197266 453.64126953 -18.30894531 454.15753906 -17.75976562 454.68945312 C-14.20275462 458.20172185 -11.81178659 460.62828978 -11.296875 465.65625 C-11.33129171 472.05775822 -11.8935463 478.08554882 -13.125 484.37109375 C-13.55050975 486.98873854 -13.63934321 489.416212 -13.5625 492.0625 C-10.15648911 491.06995081 -7.10616879 489.89252026 -4.046875 488.1171875 C-3.43457031 487.76269531 -2.82226562 487.40820312 -2.19140625 487.04296875 C-0.94693047 486.31077198 0.29027644 485.56606633 1.51953125 484.80859375 C6.76110617 481.82122433 11.46320173 481.02462096 17.4375 482.0625 C20.98550895 483.39113061 24.17429734 485.14905312 27.4375 487.0625 C29.1024668 488.0030156 30.76905403 488.94067026 32.4375 489.875 C33.5203125 490.50341797 33.5203125 490.50341797 34.625 491.14453125 C36.39625197 492.21310733 36.39625197 492.21310733 38.4375 492.0625 C37.90191049 485.06182525 37.90191049 485.06182525 36.875 478.125 C36.00076261 472.00533824 35.28193098 465.68879323 37.8125 459.9375 C41.87269725 455.49061729 46.1210098 451.25927245 50.4375 447.0625 C52.10647987 445.39814975 53.77381218 443.7321402 55.4375 442.0625 C54.71159668 441.96227539 53.98569336 441.86205078 53.23779297 441.75878906 C49.92690919 441.29252697 46.61991212 440.80275799 43.3125 440.3125 C42.17039062 440.15523438 41.02828125 439.99796875 39.8515625 439.8359375 C28.71018125 438.15177522 28.71018125 438.15177522 24.4375 434.0625 C22.76604191 431.54819422 21.49259506 428.9348197 20.25 426.1875 C19.92064453 425.49269531 19.59128906 424.79789062 19.25195312 424.08203125 C18.6078113 422.72203399 17.96972465 421.35914861 17.33837891 419.99316406 C16.09210649 417.32229082 14.7686668 414.69186352 13.4375 412.0625 C12.7775 412.0625 12.1175 412.0625 11.4375 412.0625 Z M147.4375 412.0625 C147.16075439 412.60664551 146.88400879 413.15079102 146.59887695 413.71142578 C145.32375113 416.20754098 144.03699458 418.69748496 142.75 421.1875 C142.09741211 422.47140625 142.09741211 422.47140625 141.43164062 423.78125 C135.0077335 436.15321928 135.0077335 436.15321928 129.125 438.234375 C127.908125 438.42515625 126.69125 438.6159375 125.4375 438.8125 C124.789021 438.92118408 124.14054199 439.02986816 123.47241211 439.1418457 C121.46373842 439.47283839 119.45195098 439.76898111 117.4375 440.0625 C116.16003906 440.26746094 114.88257813 440.47242188 113.56640625 440.68359375 C110.5262399 441.16642411 107.48456687 441.62573662 104.4375 442.0625 C107.07563227 444.72010188 109.73018283 447.35075083 112.4453125 449.9296875 C113.48446678 450.93219654 114.52352836 451.93480168 115.5625 452.9375 C116.08714844 453.42863281 116.61179687 453.91976562 117.15234375 454.42578125 C120.77865915 457.9602912 123.06288355 461.06993393 124.4375 466.0625 C124.35323899 469.85860373 123.77131844 473.51323939 123.125 477.25 C122.81444507 479.20151183 122.50577567 481.15332489 122.19921875 483.10546875 C122.05444092 483.96164795 121.90966309 484.81782715 121.76049805 485.69995117 C121.34719609 488.32560124 121.34719609 488.32560124 121.4375 492.0625 C124.84351089 491.06995081 127.89383121 489.89252026 130.953125 488.1171875 C131.56542969 487.76269531 132.17773438 487.40820312 132.80859375 487.04296875 C134.05306953 486.31077198 135.29027644 485.56606633 136.51953125 484.80859375 C141.76110617 481.82122433 146.46320173 481.02462096 152.4375 482.0625 C155.98550895 483.39113061 159.17429734 485.14905312 162.4375 487.0625 C164.1024668 488.0030156 165.76905403 488.94067026 167.4375 489.875 C168.5203125 490.50341797 168.5203125 490.50341797 169.625 491.14453125 C171.39625197 492.21310733 171.39625197 492.21310733 173.4375 492.0625 C173.29536703 490.16638566 173.14863093 488.27061606 173 486.375 C172.91878906 485.31925781 172.83757812 484.26351562 172.75390625 483.17578125 C172.49658264 480.14578822 172.49658264 480.14578822 171.9296875 477.53125 C170.85285333 472.12998652 170.1751385 466.11786167 172.3203125 460.92578125 C176.45748971 455.01729763 182.4481857 450.28591567 187.8046875 445.50390625 C188.67351562 444.69824219 189.54234375 443.89257812 190.4375 443.0625 C190.4375 442.7325 190.4375 442.4025 190.4375 442.0625 C189.71159668 441.96227539 188.98569336 441.86205078 188.23779297 441.75878906 C184.92690919 441.29252697 181.61991212 440.80275799 178.3125 440.3125 C177.17039062 440.15523438 176.02828125 439.99796875 174.8515625 439.8359375 C163.49411387 438.11911387 163.49411387 438.11911387 159.4375 434.0625 C157.19336395 430.43832792 155.36481785 426.67181106 153.5625 422.8125 C153.06492187 421.78125 152.56734375 420.75 152.0546875 419.6875 C150.83412038 417.15247599 149.62914737 414.61121295 148.4375 412.0625 C148.1075 412.0625 147.7775 412.0625 147.4375 412.0625 Z " fill="#052faa" transform="translate(243.5625,0.9375)"/>
</svg>
