<svg id="svg" xmlns="http://www.w3.org/2000/svg" xmlns:xlink="http://www.w3.org/1999/xlink" width="400" height="400" viewBox="0, 0, 400,400"><g id="svgg"><path id="path0" d="M187.891 23.468 C 120.677 33.945,95.450 116.624,145.191 163.416 C 148.695 166.712,151.563 169.598,151.563 169.828 C 151.563 170.308,121.293 216.429,120.273 217.504 C 119.876 217.922,116.962 217.613,113.121 216.744 C 48.373 202.100,-5.904 271.100,23.084 331.206 C 58.399 404.435,167.861 385.430,176.952 304.492 L 177.456 300.000 200.000 300.000 L 222.544 300.000 223.057 304.492 C 232.319 385.507,341.580 404.478,376.916 331.206 C 405.904 271.100,351.627 202.100,286.879 216.744 C 283.043 217.612,280.127 217.922,279.736 217.504 C 278.728 216.427,248.438 170.271,248.438 169.811 C 248.438 169.590,251.305 166.712,254.809 163.416 C 312.799 108.864,266.134 11.272,187.891 23.468 M102.284 32.752 C 96.459 38.577,101.525 47.860,109.677 46.302 C 118.562 44.603,116.897 30.469,107.813 30.469 C 105.267 30.469,104.075 30.961,102.284 32.752 M212.788 40.227 C 263.861 51.047,282.328 113.427,245.274 149.963 C 212.312 182.466,157.046 170.820,139.795 127.737 C 120.843 80.407,163.133 29.706,212.788 40.227 M286.659 48.377 C 279.415 55.621,289.741 66.306,297.596 59.696 C 300.903 56.914,301.071 51.284,297.940 48.153 C 294.923 45.136,289.798 45.238,286.659 48.377 M331.641 47.990 C 319.422 53.072,312.651 66.771,315.958 79.716 C 322.251 104.348,356.263 107.551,367.055 84.529 C 377.450 62.351,354.368 38.536,331.641 47.990 M190.658 55.883 C 168.253 59.937,151.409 80.318,151.291 103.516 C 151.070 147.077,203.681 169.070,234.465 138.286 C 268.375 104.376,238.036 47.310,190.658 55.883 M27.647 61.703 C 22.306 63.861,21.114 70.489,25.312 74.688 L 27.969 77.344 41.758 77.344 C 59.241 77.344,61.719 76.329,61.719 69.164 C 61.719 65.574,59.925 62.844,56.863 61.777 C 54.023 60.787,30.065 60.726,27.647 61.703 M348.618 64.191 C 356.311 69.669,353.515 82.277,344.220 84.021 C 340.841 84.655,335.557 82.444,333.480 79.527 C 326.400 69.585,338.698 57.127,348.618 64.191 M213.508 74.411 C 234.666 84.475,239.068 111.384,222.170 127.365 C 195.871 152.238,154.777 121.386,171.110 89.031 C 178.968 73.464,197.838 66.957,213.508 74.411 M198.438 78.806 C 198.438 81.752,198.352 81.845,195.179 82.353 C 181.140 84.598,181.093 103.355,195.117 107.221 C 198.429 108.134,198.438 108.146,198.438 111.846 L 198.438 115.556 195.401 114.484 C 193.731 113.895,191.238 112.830,189.860 112.118 C 188.482 111.405,187.254 110.936,187.131 111.075 C 186.757 111.497,182.813 119.457,182.813 119.789 C 182.813 120.496,192.047 124.109,195.117 124.603 L 198.438 125.137 198.438 128.584 C 198.438 131.893,198.531 132.031,200.781 132.031 C 203.031 132.031,203.125 131.893,203.125 128.584 C 203.125 125.175,203.159 125.132,206.232 124.612 C 220.961 122.124,221.113 104.465,206.445 99.657 L 202.344 98.312 202.344 94.859 C 202.344 90.836,202.725 90.731,207.897 93.328 L 211.724 95.251 213.728 91.296 C 214.830 89.121,215.567 86.912,215.365 86.387 C 214.948 85.301,206.881 82.031,204.618 82.031 C 203.397 82.031,203.125 81.462,203.125 78.906 C 203.125 75.955,202.995 75.781,200.781 75.781 C 198.581 75.781,198.438 75.966,198.438 78.806 M40.565 86.659 C 37.509 89.715,37.403 94.149,40.304 97.596 L 42.326 100.000 57.386 100.000 C 74.412 100.000,75.995 99.524,77.013 94.094 C 78.552 85.893,75.516 84.375,57.579 84.375 L 42.849 84.375 40.565 86.659 M86.659 86.659 C 81.564 91.753,84.959 100.000,92.150 100.000 C 97.386 100.000,100.000 97.386,100.000 92.150 C 100.000 84.959,91.753 81.564,86.659 86.659 M198.438 94.206 C 198.438 97.121,197.308 97.520,195.804 95.136 C 195.244 94.249,195.313 93.519,196.039 92.644 C 197.667 90.683,198.438 91.185,198.438 94.206 M205.022 111.384 C 206.575 112.936,205.336 115.625,203.069 115.625 C 202.670 115.625,202.344 114.395,202.344 112.891 C 202.344 109.914,203.117 109.479,205.022 111.384 M57.134 153.989 C 37.488 157.724,31.365 183.312,47.222 195.407 C 56.283 202.317,69.553 201.660,77.607 193.903 C 94.342 177.783,79.915 149.657,57.134 153.989 M112.500 154.146 C 106.832 156.078,105.582 163.609,110.274 167.557 C 117.202 173.387,127.330 164.499,122.164 157.123 C 121.155 155.683,116.526 152.955,115.455 153.169 C 115.334 153.193,114.004 153.633,112.500 154.146 M282.253 153.673 C 275.833 154.916,274.796 165.845,280.838 168.598 C 283.996 170.037,316.581 169.885,319.418 168.418 C 325.271 165.391,324.588 156.849,318.282 154.214 C 315.787 153.172,287.071 152.740,282.253 153.673 M65.387 171.059 C 72.048 175.121,67.037 186.278,59.658 183.818 C 55.013 182.270,52.953 175.879,56.005 172.486 C 58.844 169.328,61.808 168.877,65.387 171.059 M302.284 178.846 C 298.235 182.895,299.317 189.767,304.335 191.863 C 308.060 193.420,330.229 193.416,333.958 191.858 C 339.480 189.551,340.489 182.466,335.851 178.563 C 333.488 176.574,333.388 176.563,319.021 176.563 L 304.567 176.563 302.284 178.846 M348.475 178.749 C 341.959 185.265,348.952 195.764,357.201 191.849 C 364.686 188.297,362.791 177.713,354.504 176.779 C 351.212 176.408,350.623 176.600,348.475 178.749 M171.231 179.742 C 188.339 186.485,209.964 186.554,228.389 179.925 C 231.328 178.868,233.828 178.118,233.946 178.259 C 234.903 179.402,264.095 223.558,264.251 224.098 C 264.362 224.483,261.816 226.569,258.594 228.733 C 241.838 239.984,224.219 266.489,224.219 280.445 C 224.219 284.502,225.004 284.375,200.000 284.375 C 174.996 284.375,175.781 284.502,175.781 280.445 C 175.781 266.402,158.025 239.781,141.240 228.659 L 135.214 224.666 136.552 222.578 C 144.302 210.487,166.143 178.159,166.573 178.144 C 166.879 178.134,168.975 178.852,171.231 179.742 M107.939 232.351 C 162.650 242.856,179.805 313.244,135.938 347.230 C 92.058 381.225,28.154 347.652,31.483 292.353 C 33.813 253.650,70.189 225.102,107.939 232.351 M316.244 232.485 C 363.539 242.185,384.354 297.276,355.197 335.581 C 325.212 374.973,263.679 366.957,244.024 321.098 C 223.933 274.220,266.296 222.241,316.244 232.485 M298.377 240.565 C 295.238 243.704,295.136 248.830,298.153 251.847 C 303.059 256.752,311.719 253.080,311.719 246.094 C 311.719 243.549,311.226 242.356,309.435 240.565 C 307.644 238.774,306.451 238.281,303.906 238.281 C 301.361 238.281,300.168 238.774,298.377 240.565 M90.234 253.961 C 46.264 259.541,40.330 321.664,82.342 336.582 C 106.469 345.150,138.113 325.894,138.265 302.551 C 138.330 292.545,124.383 292.257,121.900 302.213 C 115.833 326.543,82.673 329.618,72.179 306.824 C 63.844 288.720,77.112 269.922,98.224 269.922 C 105.914 269.922,106.295 269.841,108.380 267.756 C 112.797 263.340,110.375 255.248,104.367 254.351 C 98.773 253.515,94.645 253.402,90.234 253.961 M263.515 254.299 C 259.537 257.085,259.492 263.489,263.426 266.799 C 269.002 271.491,276.563 267.655,276.563 260.135 C 276.563 254.602,268.335 250.923,263.515 254.299 M333.273 255.529 C 326.730 263.304,337.046 273.498,344.478 266.602 C 346.661 264.576,347.165 262.981,346.961 258.754 C 346.689 253.107,337.193 250.870,333.273 255.529 M113.519 275.170 L 96.878 291.746 92.724 287.644 C 85.220 280.233,76.563 282.206,76.563 291.326 C 76.563 296.804,91.093 310.938,96.724 310.938 L 100.322 310.938 120.470 290.843 C 142.451 268.922,143.068 268.050,140.271 262.858 C 135.837 254.624,132.695 256.070,113.519 275.170 M288.672 269.657 C 281.968 273.343,282.642 276.977,292.896 292.434 C 303.882 308.994,301.836 307.813,319.531 307.813 C 335.706 307.813,336.694 307.545,338.282 302.732 C 340.903 294.789,337.165 292.193,323.068 292.168 L 312.109 292.148 304.862 281.203 C 296.655 268.809,293.851 266.809,288.672 269.657 M248.377 290.565 C 245.238 293.704,245.136 298.830,248.153 301.847 C 253.059 306.752,261.719 303.080,261.719 296.094 C 261.719 293.549,261.226 292.356,259.435 290.565 C 257.644 288.774,256.451 288.281,253.906 288.281 C 251.361 288.281,250.168 288.774,248.377 290.565 M348.377 290.565 C 345.238 293.704,345.136 298.830,348.153 301.847 C 353.059 306.752,361.719 303.080,361.719 296.094 C 361.719 293.549,361.226 292.356,359.435 290.565 C 357.644 288.774,356.451 288.281,353.906 288.281 C 351.361 288.281,350.168 288.774,348.377 290.565 M263.399 325.412 C 260.430 327.910,259.713 331.020,261.256 334.713 C 263.549 340.202,270.706 341.215,274.588 336.601 C 280.857 329.151,270.849 319.143,263.399 325.412 M334.981 324.655 C 330.723 326.966,329.889 332.638,333.224 336.601 C 338.754 343.173,349.111 337.617,346.787 329.326 C 345.348 324.197,339.841 322.018,334.981 324.655 M209.922 340.291 C 207.280 342.933,206.661 346.038,208.093 349.466 C 211.524 357.677,224.219 354.346,223.221 345.496 C 222.447 338.631,214.638 335.575,209.922 340.291 M298.377 340.565 C 295.238 343.704,295.136 348.830,298.153 351.847 C 303.059 356.752,311.719 353.080,311.719 346.094 C 311.719 343.549,311.226 342.356,309.435 340.565 C 307.644 338.774,306.451 338.281,303.906 338.281 C 301.361 338.281,300.168 338.774,298.377 340.565 M174.721 353.986 C 165.817 356.424,167.635 369.531,176.878 369.531 C 181.241 369.531,185.162 365.589,185.153 361.210 C 185.151 359.977,182.466 354.688,181.842 354.688 C 181.726 354.688,180.578 354.392,179.292 354.031 C 178.005 353.670,175.949 353.650,174.721 353.986 " stroke="none" fill="#052faa" fill-rule="evenodd"></path></g></svg>